<svg width="26" height="26" fill="none" xmlns="http://www.w3.org/2000/svg"><path d="M26 14.677h-1.677v-.838h-1.678v-.63l-1.957-1.467H19.29V7.129a1.26 1.26 0 00-1.258-1.258h-.42v-.42a1.26 1.26 0 00-1.257-1.258H4.613c-.546 0-1.007.352-1.181.84H0v2.515h3.355v1.755a1.256 1.256 0 00-.839 1.18v2.936H0v6.71h2.516v.42a1.26 1.26 0 001.258 1.257h12.58c.547 0 1.008-.352 1.182-.838h.496c.546 0 1.008-.352 1.181-.84h1.475l1.957-1.467v-.629h1.678v-.839H26v-2.516zm-9.226-9.226v.42h-1.677v3.355H5.87V5.032h10.484a.42.42 0 01.42.42zM4.613 5.032h.42v4.194h-.84V5.45a.42.42 0 01.42-.419zM.839 6.71v-.838h2.516v.838H.839zm1.677 7.549v1.072a1.66 1.66 0 00-.839-.233c-.307 0-.59.088-.838.233v-1.072h1.677zm0 2.516a.84.84 0 11-1.679-.002.84.84 0 011.68.002zM.84 19.29v-1.072c.247.145.531.233.838.233.307 0 .591-.088.84-.233v1.072H.838zm15.935 1.258a.42.42 0 01-.42.42H5.872v-9.646h-.839v9.646H3.774a.42.42 0 01-.42-.42V10.484a.42.42 0 01.42-.42h10.484V20.13h.839V10.064h1.258a.42.42 0 01.42.42v10.064zm1.678-.838a.42.42 0 01-.42.419h-.42v-9.645a1.26 1.26 0 00-1.257-1.258h-.42V6.709h2.097c.231 0 .42.188.42.42v12.58zm3.354-1.468L20.41 19.29H19.29v-6.71h1.119l1.398 1.049v4.613zm1.678-1.049h-.839v-2.516h.839v2.516zm1.677-.838h-.838v-.84h.838v.84z" fill="#FFC582"/></svg>