<svg width="21" height="21" fill="none" xmlns="http://www.w3.org/2000/svg"><g clip-path="url(#clip0)" fill="#FFC582"><path d="M21.047 17.357h-.292a.853.853 0 000-.124V1.643a.866.866 0 00-.866-.866h-8.463a.866.866 0 00-.866.866v6.434a3.36 3.36 0 00-1.98 1.366 3.4 3.4 0 00-.485 2.84c.356 1.367.4 3.178-.336 3.93a1.539 1.539 0 01-1.555.292 1.727 1.727 0 01-1.301-.99c-.787-1.816 1.178-5.25 1.183-5.266.118-.178 2.855-4.429.06-6.928C6.03 3.2 3.333.35 1.25.628a.387.387 0 00.1.767c.5-.03 1 .082 1.44.322l-.555.668a.866.866 0 00.149 1.233l1.86 1.484a.856.856 0 00.54.188h.074a.861.861 0 00.58-.321l.539-.678c1.673 2.138-.495 5.543-.55 5.597-.089.154-2.167 3.791-1.237 5.94a2.475 2.475 0 001.846 1.405c.25.06.506.092.762.094a2.014 2.014 0 001.485-.59c.99-1.033.91-3.142.525-4.636a2.608 2.608 0 011.742-3.242v8.374a.882.882 0 000 .123h-.248a.866.866 0 00-.886.867v1.301a.866.866 0 00.886.866h10.745a.866.866 0 00.866-.866v-1.301a.866.866 0 00-.866-.866zM5.407 3.83l-.549.678a.124.124 0 01-.084.045.119.119 0 01-.089-.025l-1.86-1.484a.124.124 0 010-.174l.549-.683a.124.124 0 01.084-.044.119.119 0 01.089.025l1.86 1.484c.027.02.043.051.045.084 0 .037-.016.071-.044.094zm5.885-2.187c0-.068.056-.124.124-.124h8.483c.068 0 .123.056.123.124v15.59a.124.124 0 01-.123.123h-8.473a.124.124 0 01-.134-.123V1.643zm9.899 17.881a.124.124 0 01-.124.124H10.302a.124.124 0 01-.123-.124v-1.301c0-.069.055-.124.123-.124h10.745a.124.124 0 01.143.124v1.301z"/><path d="M18.221 2.697h-5.127a.866.866 0 00-.867.866v5.133c0 .478.388.866.867.866h5.127a.866.866 0 00.866-.866V3.563a.866.866 0 00-.866-.866zm.124 6.004a.124.124 0 01-.124.118h-5.127a.124.124 0 01-.124-.123V3.563c0-.068.055-.123.124-.123h5.127c.068 0 .124.055.124.123v5.138zM17.642 10.962h-3.96a.371.371 0 000 .742h3.96a.371.371 0 000-.742z"/></g><defs><clipPath id="clip0"><path fill="#fff" d="M0 0h21v21H0z"/></clipPath></defs></svg>