<svg width="21" height="21" fill="none" xmlns="http://www.w3.org/2000/svg"><g clip-path="url(#clip0)" fill="#FFC582"><path d="M17.843 7.018H.3a.3.3 0 00-.301.3v8.42a.3.3 0 00.3.301h11.93a.3.3 0 000-.601H.6v-7.82h16.94v.753a.3.3 0 00.3.3h.002a.3.3 0 00.3-.3V7.318a.3.3 0 00-.3-.3zM15.803 5.622L1.77 2.464a.302.302 0 00-.36.228L.71 5.85a.3.3 0 00.587.13l.636-2.863 13.74 3.091a.3.3 0 00.132-.587zM14.1 3.881L5.68.373a.302.302 0 00-.387.143L4.592 1.92a.302.302 0 10.54.27l.575-1.152 8.16 3.4a.301.301 0 10.232-.557z"/><path d="M14.312 8.42h-2.784a.3.3 0 100 .602h2.784a.3.3 0 000-.601zM8.72 8.44a3.087 3.087 0 100 6.175 3.087 3.087 0 000-6.175zm0 5.614a2.526 2.526 0 110-5.052 2.526 2.526 0 010 5.052zM17.14 9.423c-1.859 0-3.858.44-3.858 1.403v8.42c0 .964 2 1.404 3.859 1.404C19 20.65 21 20.21 21 19.246v-8.42c0-.964-2-1.403-3.86-1.403zm3.158 9.818c-.053.195-1.105.707-3.157.707-2.053 0-3.105-.512-3.158-.702v-.551c.747.376 1.98.551 3.158.551s2.411-.177 3.157-.552v.547zm0-1.403c-.053.194-1.105.707-3.157.707-2.053 0-3.105-.513-3.158-.702v-.552c.747.377 1.98.552 3.158.552s2.411-.177 3.157-.552v.547zm0-1.404c-.053.195-1.105.707-3.157.707-2.053 0-3.105-.512-3.158-.701v-.552c.747.376 1.98.552 3.158.552s2.411-.178 3.157-.552v.546zm0-1.403c-.053.195-1.105.707-3.157.707-2.053 0-3.105-.512-3.158-.702v-.551c.747.376 1.98.551 3.158.551s2.411-.177 3.157-.552v.547zm0-1.403c-.053.194-1.105.707-3.157.707-2.053 0-3.105-.513-3.158-.702v-.552c.747.375 1.98.552 3.158.552s2.411-.177 3.157-.552v.547zm0-1.404c-.053.195-1.105.707-3.157.707-2.053 0-3.105-.512-3.158-.701v-.552c.747.374 1.98.551 3.158.551s2.411-.177 3.157-.551v.546zm-3.157-.696c-2.05 0-3.101-.51-3.158-.696v-.002c.057-.195 1.109-.706 3.158-.706 2.035 0 3.087.504 3.157.702-.07.199-1.122.702-3.157.702z"/><path d="M5.914 14.034H3.262l-1.257-1.375v-2.28l1.388-1.357h2.521a.3.3 0 000-.601H3.271a.301.301 0 00-.21.085l-1.568 1.529a.377.377 0 00-.09.245v2.495c0 .075.028.148.079.203l1.425 1.56a.301.301 0 00.222.097h2.785a.3.3 0 000-.601zM8.896 11.177h-.35c-.11 0-.176-.06-.176-.088 0-.026.066-.087.175-.087h.877a.35.35 0 000-.702h-.35a.35.35 0 10-.702 0v.016a.817.817 0 00-.702.772c.025.46.417.813.877.79h.351c.11 0 .176.062.176.088 0 .027-.067.088-.176.088H8.02a.35.35 0 000 .702h.35a.35.35 0 10.703 0v-.016a.817.817 0 00.701-.772.838.838 0 00-.877-.79z"/></g><defs><clipPath id="clip0"><path fill="#fff" d="M0 0h21v21H0z"/></clipPath></defs></svg>