<svg width="28" height="28" fill="none" xmlns="http://www.w3.org/2000/svg"><path d="M6.873 18.709a.383.383 0 00-.383.383v1.969a.383.383 0 10.766 0v-1.97a.383.383 0 00-.383-.382z" fill="#FFC582"/><path d="M16.23 2.242H7.964A1.942 1.942 0 006.736 5.69l1.526 1.246v.94h-.328a.383.383 0 00-.383.383v1.118h-.757a.383.383 0 00-.382.382v2.39l-.492 1.307a11.663 11.663 0 00-.742 4.102v9.021a.383.383 0 00.383.383h9.878a.383.383 0 00.383-.383v-6.481c0-.837-.09-1.672-.267-2.49V17.6a11.697 11.697 0 00-2.93-5.534V9.758a.383.383 0 00-.382-.382h-.759V8.258a.383.383 0 00-.382-.383h-.329v-.981l1.422-1.705 2.684-.775h1.35a.382.382 0 00.383-.383V2.625a.383.383 0 00-.383-.383zM5.942 26.195v-8.638c0-1.31.234-2.608.693-3.833L7.06 12.6h5.019a10.928 10.928 0 012.609 4.699h-5.17a.383.383 0 00-.382.383v6.562a.383.383 0 00.383.383h5.539v1.568H5.943zm8.92-8.13c.127.67.192 1.35.194 2.032v3.764H9.9v-5.797h4.961zm-3.005-6.23h-4.68V10.14h4.68v1.693zm-3.541-2.46v-.734h2.402v.735H8.317zm6.123-5.631l-2.57.742a.382.382 0 00-.187.123l-1.586 1.9a.382.382 0 00-.09.246v1.12h-.98v-1.12a.383.383 0 00-.14-.296L7.22 5.095a1.176 1.176 0 01.744-2.087h6.475v.736zm1.407-.096h-.64v-.64h.64v.64zM18.357 2.49c.02 0 .04-.002.06-.005l1.187-.187a.383.383 0 00-.119-.756l-1.188.186a.383.383 0 00.06.761v.001zM21.096 2.059c.02 0 .04-.002.06-.005l1.611-.254a.383.383 0 00-.119-.756l-1.61.253a.383.383 0 00.058.762zM19.604 4.358l-1.188-.187a.383.383 0 10-.119.756l1.188.187a.379.379 0 00.32-.097.383.383 0 00-.2-.66zM22.768 4.856l-1.611-.254a.383.383 0 00-.12.757l1.611.254a.383.383 0 10.12-.756zM19.232 2.945a.383.383 0 100 .766h1.946a.383.383 0 000-.766h-1.946z" fill="#FFC582"/></svg>