<svg width="22" height="22" fill="none" xmlns="http://www.w3.org/2000/svg"><g clip-path="url(#clip0)" fill="#FFC582"><path d="M6.123 12.797c.245 0 .484-.074.69-.217L12.4 8.713a1.217 1.217 0 00-.43-2.192 1.209 1.209 0 00-.923.165L5.332 10.36a1.208 1.208 0 00-.533.777 1.21 1.21 0 00.179.924l.127.192a1.21 1.21 0 001.018.543zm-.375-.971l-.127-.192a.443.443 0 01.13-.623l5.712-3.676a.445.445 0 01.62.137.446.446 0 01-.123.606l-5.586 3.867a.443.443 0 01-.626-.12z"/><path d="M21.228 14.346c0-1.65-2.347-4.876-3.09-5.854V5.496c0-.75-.498-1.38-1.18-1.593V2.54c0-.766-.624-1.39-1.39-1.39h-2.262c-.766 0-1.39.624-1.39 1.39V3.82h-.222c-.336 0-.66.099-.938.287L3.614 8.922a2.958 2.958 0 00-1.305 2.456v8.067A2.558 2.558 0 004.864 22h10.72a2.558 2.558 0 002.555-2.555v-1.55a3.591 3.591 0 003.089-3.549zM12.688 2.54c0-.34.277-.617.618-.617h2.262c.34 0 .618.277.618.617V3.82h-3.498V2.54zm2.896 18.688H4.864c-.984 0-1.783-.8-1.783-1.783v-8.067c0-.73.36-1.408.965-1.816l7.142-4.816a.901.901 0 01.506-.155h4.768c.498 0 .905.406.905.905v2.717c-.01.01-.024.014-.032.024-.336.431-3.284 4.26-3.284 6.109a3.591 3.591 0 003.316 3.575v1.524c0 .983-.8 1.783-1.784 1.783zm2.055-4.066a2.82 2.82 0 01-2.816-2.816c0-1.204 1.817-3.893 2.816-5.234 1 1.34 2.817 4.029 2.817 5.234a2.82 2.82 0 01-2.817 2.816zM5.67 5.58c.774 0 1.404-.63 1.404-1.405 0-.645-.842-1.773-1.1-2.104a.4.4 0 00-.608 0c-.258.33-1.1 1.46-1.1 2.104 0 .774.63 1.404 1.404 1.404zm0-2.618c.341.494.632 1.014.632 1.213a.633.633 0 01-1.264 0c0-.198.29-.72.632-1.213zM3.599 2.244c0-.644-.842-1.773-1.1-2.103a.4.4 0 00-.608 0C1.633.47.79 1.6.79 2.244c0 .775.63 1.405 1.404 1.405.774 0 1.404-.63 1.404-1.405zm-1.404.633a.633.633 0 01-.632-.633c0-.198.29-.719.632-1.213.341.494.632 1.015.632 1.213a.633.633 0 01-.632.633z"/><path d="M19.297 13.7a.386.386 0 00-.386.385c0 .745-.606 1.352-1.352 1.352a.386.386 0 100 .772 2.126 2.126 0 002.124-2.124.386.386 0 00-.386-.386zM14.278 18.525H6.169a.386.386 0 100 .773h8.109a.386.386 0 100-.773z"/></g><defs><clipPath id="clip0"><path fill="#fff" d="M0 0h22v22H0z"/></clipPath></defs></svg>