<svg width="22" height="22" fill="none" xmlns="http://www.w3.org/2000/svg"><path d="M14.008 9.066a2.366 2.366 0 00-2.363-2.363H8.422a.43.43 0 00-.43.43V11c0 .237.193.43.43.43h3.223a2.366 2.366 0 002.363-2.364zM8.852 7.562h2.793c.829 0 1.503.675 1.503 1.504 0 .83-.674 1.504-1.503 1.504H8.852V7.562z" fill="#FFC582"/><path d="M16.586 9.066a4.947 4.947 0 00-4.941-4.941H5.844a.43.43 0 00-.43.43v12.89c0 .238.192.43.43.43h2.578a.43.43 0 00.43-.43v-3.437h2.793a4.947 4.947 0 004.94-4.942zm-8.164 4.082a.43.43 0 00-.43.43v3.438H6.273V4.984h5.372a4.087 4.087 0 014.082 4.082 4.087 4.087 0 01-4.082 4.082H8.422zM11 22a.43.43 0 100-.86.43.43 0 000 .86z" fill="#FFC582"/><path d="M20.281 0H1.72A1.72 1.72 0 000 1.719V20.28A1.72 1.72 0 001.719 22h7.347a.43.43 0 000-.86H1.72a.86.86 0 01-.86-.859V1.72a.86.86 0 01.86-.86H20.28a.86.86 0 01.86.86V20.28a.86.86 0 01-.86.86h-7.347a.43.43 0 000 .859h7.347A1.72 1.72 0 0022 20.281V1.72A1.72 1.72 0 0020.281 0z" fill="#FFC582"/></svg>