<svg width="18" height="18" fill="none" xmlns="http://www.w3.org/2000/svg"><g clip-path="url(#clip0)" fill="#FFC582"><path d="M17.836.165a.562.562 0 00-.796 0L.172 17.033a.562.562 0 10.796.795L17.836.96a.562.562 0 000-.795zM3.943.008A3.946 3.946 0 000 3.948a3.947 3.947 0 003.943 3.943 3.946 3.946 0 003.94-3.942A3.946 3.946 0 003.944.008zm0 6.758A2.82 2.82 0 011.125 3.95a2.82 2.82 0 012.818-2.816A2.82 2.82 0 016.759 3.95a2.82 2.82 0 01-2.816 2.817zM14.052 10.116a3.946 3.946 0 00-3.942 3.942A3.947 3.947 0 0014.052 18a3.947 3.947 0 003.941-3.942 3.946 3.946 0 00-3.941-3.942zm0 6.76a2.82 2.82 0 01-2.817-2.818 2.82 2.82 0 012.817-2.817 2.82 2.82 0 012.816 2.817 2.82 2.82 0 01-2.816 2.817z"/></g><defs><clipPath id="clip0"><path fill="#fff" d="M0 0h18v18H0z"/></clipPath></defs></svg>