<svg width="26" height="26" fill="none" xmlns="http://www.w3.org/2000/svg"><g clip-path="url(#clip0)" fill="#FFC582"><path d="M25.543 2.763l-.249-.552-3.35 3.35a1.065 1.065 0 01-1.504-1.504l3.35-3.35-.553-.25c-.927-.419-1.987-.723-3.45-.11-1.875.783-3.057 2.503-3.01 4.382.009.402.073.803.19 1.195L5.925 16.968a4.564 4.564 0 00-1.31-.194A4.618 4.618 0 000 21.387 4.618 4.618 0 004.614 26a4.618 4.618 0 004.612-4.613c0-.44-.065-.88-.193-1.31L20.076 9.033c.392.117.793.182 1.195.192 1.874.052 3.6-1.137 4.384-3.012.611-1.463.307-2.522-.112-3.45zm-12.542 8.98A1.26 1.26 0 0114.259 13 1.26 1.26 0 0113 14.258 1.26 1.26 0 0111.742 13 1.26 1.26 0 0113 11.742zm-.158 3.338l-1.94 1.939-1.922-1.923 1.939-1.94a2.087 2.087 0 001.923 1.924zm.316-4.162l1.938-1.939 1.923 1.923-1.939 1.94a2.087 2.087 0 00-1.922-1.924zm-5 9.187c.152.419.229.85.229 1.281a3.778 3.778 0 01-3.774 3.774A3.778 3.778 0 01.84 21.387a3.778 3.778 0 013.774-3.774c.431 0 .862.077 1.28.229l.251.09 2.243-2.242 1.923 1.923-2.242 2.242.09.25zM24.882 5.89c-.65 1.554-2.057 2.537-3.588 2.496-.4-.01-.8-.086-1.188-.226l-.25-.09-2.242 2.24-1.923-1.923 2.242-2.24-.091-.252a3.759 3.759 0 01-.227-1.187c-.038-1.53.942-2.939 2.496-3.588.865-.362 1.529-.344 2.206-.126l-2.469 2.47a1.904 1.904 0 002.69 2.69l2.469-2.47c.218.677.236 1.342-.125 2.206z"/><path d="M4.614 18.451a2.939 2.939 0 00-2.936 2.936 2.939 2.939 0 002.936 2.935 2.939 2.939 0 002.935-2.935 2.939 2.939 0 00-2.935-2.936zm0 5.032a2.099 2.099 0 01-2.097-2.096c0-1.157.94-2.097 2.097-2.097a2.1 2.1 0 012.096 2.097 2.1 2.1 0 01-2.096 2.096z"/></g><defs><clipPath id="clip0"><path fill="#fff" d="M0 0h26v26H0z"/></clipPath></defs></svg>