<svg width="35" height="35" fill="none" xmlns="http://www.w3.org/2000/svg"><g clip-path="url(#clip0)" fill="#FFC582"><path d="M15.108 27.888a12.639 12.639 0 01-3.935-1.942 12.621 12.621 0 01-3.744-4.407 12.574 12.574 0 01-.405-10.484c.083-.016.11-.021.142-.03.38-.114.742-.304 1.047-.55A3.335 3.335 0 009.474 7.86c.008-.929-.343-1.905-.964-2.678a.513.513 0 00-.57-.163c-.936.33-1.75.973-2.232 1.767a3.336 3.336 0 00-.309 2.887c.13.37.338.722.6 1.019a.636.636 0 00.046.045c-.164.402-.309.812-.433 1.228a3.354 3.354 0 00-1.587-1.285c-.863-.344-1.9-.37-2.845-.07a.514.514 0 00-.359.473c-.031.99.275 1.982.84 2.72a3.336 3.336 0 002.675 1.333c.244 0 .49-.03.73-.09a13.56 13.56 0 00.006 1.693 3.334 3.334 0 00-2.311-.702C1.834 16.1.887 16.523.163 17.2a.513.513 0 00-.12.582c.4.907 1.103 1.67 1.93 2.092.496.252 1.02.379 1.546.379.458 0 .916-.096 1.356-.289.241-.105.47-.246.68-.412.185.657.42 1.297.701 1.917a3.36 3.36 0 00-1.866.086c-.882.292-1.693.94-2.224 1.777a.513.513 0 00.03.593c.615.778 1.487 1.34 2.394 1.54.255.057.51.085.76.085a3.32 3.32 0 002.072-.725c.203-.16.387-.35.546-.559a13.757 13.757 0 001.329 1.449 3.378 3.378 0 00-1.554.7c-.726.58-1.263 1.467-1.473 2.436a.513.513 0 00.234.546 4.397 4.397 0 002.271.654c.171 0 .34-.011.507-.034 1.03-.14 1.895-.7 2.436-1.579.137-.221.245-.466.321-.719a13.55 13.55 0 002.783 1.155.514.514 0 00.286-.986zM6.246 8.395a2.5 2.5 0 01.222-.858c.292-.636.835-1.116 1.463-1.408.91 1.387.526 2.833-.361 3.547-.22.176-.579.454-.851.28-.453-.288-.507-1.088-.473-1.561zM5.02 18.343a.669.669 0 01-.03.151c-.079.246-.294.428-.526.53-1.043.456-2.502.129-3.312-1.318-.045-.08.873-.465.966-.494.376-.117.777-.17 1.17-.134.386.034.764.155 1.082.378.274.193.679.522.65.887zm-.29-4.272a1.634 1.634 0 01-.455.037c-1.137-.037-2.313-.962-2.42-2.616 1.621-.346 2.83.535 3.175 1.62.134.422.203.829-.3.959zm2.53 9.36c-.036.234-.299.45-.472.587-.895.704-2.39.753-3.537-.444.432-.555 1.033-.981 1.73-1.116.602-.116 2.099.082 2.276.844.01.044.01.087.004.13zm3.585 4.47c-.597.968-1.983 1.53-3.473.803.24-.75.747-1.398 1.468-1.732.49-.227 1.595-.491 2.07-.102.114.094.169.2.184.313.031.239-.116.501-.25.717z"/><path d="M22.585 24.37a.789.789 0 00.316-.776l-.812-4.732 3.439-3.351a.788.788 0 00.2-.814.788.788 0 00-.64-.54l-4.752-.69-2.124-4.306a.79.79 0 00-.712-.442.789.789 0 00-.712.442l-.873 1.77a.513.513 0 00.92.454l.665-1.346 1.97 3.992c.116.234.339.396.598.434l4.405.64-3.188 3.107a.794.794 0 00-.228.703l.752 4.387-3.94-2.071a.793.793 0 00-.739 0l-3.94 2.071.753-4.387a.793.793 0 00-.229-.703l-3.188-3.107 4.406-.64a.794.794 0 00.598-.434l.248-.504a.513.513 0 10-.92-.455l-.195.395-4.751.69a.788.788 0 00-.64.54.789.789 0 00.2.814l3.438 3.35-.812 4.733c-.051.3.07.598.316.776a.792.792 0 00.836.06l4.25-2.233 4.25 2.234c.269.142.59.118.835-.06zM15.59 7.007a.513.513 0 101.017-.149l-.202-1.37a.513.513 0 10-1.016.149l.202 1.37zM13.239 8.514a.513.513 0 10.873-.54l-.694-1.12a.513.513 0 10-.872.54l.693 1.12zM18.906 7.44a.514.514 0 00.583-.433l.201-1.37a.513.513 0 10-1.015-.15l-.202 1.371a.513.513 0 00.433.583zM21.134 8.68a.51.51 0 00.706-.166l.694-1.12a.513.513 0 00-.873-.54l-.693 1.12a.513.513 0 00.166.707z"/><path d="M34.837 17.2c-.724-.677-1.67-1.1-2.598-1.162a3.334 3.334 0 00-2.31.701c.037-.565.038-1.13.005-1.692a3.089 3.089 0 00.825.087 3.337 3.337 0 002.58-1.332c.565-.737.871-1.728.84-2.72a.513.513 0 00-.359-.472c-.945-.3-1.982-.274-2.845.07-.67.266-1.212.71-1.587 1.285a13.454 13.454 0 00-.433-1.227.646.646 0 00.046-.046c.262-.297.47-.65.6-1.019a3.336 3.336 0 00-.308-2.887c-.483-.793-1.297-1.437-2.232-1.767a.513.513 0 00-.57.163c-.622.773-.973 1.75-.965 2.678a3.335 3.335 0 001.26 2.616c.306.245.668.435 1.048.548.032.01.06.015.142.03a12.543 12.543 0 01-.995 11.518 12.716 12.716 0 01-2.47 2.834c-.418.355-.835.695-1.306.975-.464.277-.939.56-1.427.792-.608.288-1.24.528-1.886.715a.513.513 0 10.286.986 13.55 13.55 0 002.783-1.155c.077.254.185.497.321.72.314.509.728.908 1.233 1.186a.514.514 0 00.495-.9 2.303 2.303 0 01-.853-.825c-.25-.404-.33-.854.18-1.055 1.432-.56 2.86.508 3.291 1.857-.226.107-.462.189-.706.244a.513.513 0 10.227 1.001 4.445 4.445 0 001.348-.55.513.513 0 00.233-.545c-.21-.97-.746-1.858-1.473-2.436a3.378 3.378 0 00-1.553-.701 13.765 13.765 0 001.329-1.449c.158.21.343.399.546.559a3.32 3.32 0 002.07.725c.252 0 .506-.028.761-.084.907-.2 1.78-.763 2.393-1.54a.514.514 0 00.031-.594c-.531-.837-1.341-1.485-2.223-1.777a3.364 3.364 0 00-1.867-.086c.282-.62.516-1.26.702-1.917.208.166.438.307.679.412.44.193.898.289 1.356.289.526 0 1.05-.127 1.546-.379.828-.422 1.531-1.185 1.93-2.092a.514.514 0 00-.12-.581zm-6.122-8.17c-.065.326-.14.874-.554.936-.288.044-.517-.118-.73-.29-.887-.714-1.271-2.16-.362-3.546.076-.116.999.71 1.08.806.25.297.437.649.534 1.027.09.348.102.715.032 1.067zm3.035 14.544c-1.147 1.197-2.642 1.148-3.537.444a2.06 2.06 0 01-.503-.582 4.37 4.37 0 01-.027-.061l.13-.198c.134-.159.292-.298.464-.407.962-.608 2.455-.505 3.473.804zm-1.779-10.462c.345-1.085 1.553-1.966 3.176-1.62-.107 1.655-1.284 2.58-2.421 2.616-.275.01-.716.013-.835-.29-.085-.217.015-.498.08-.706zm.566 5.912c-.228-.1-.504-.22-.614-.46-.24-.523.559-.992.9-1.186a2.46 2.46 0 01.903-.301c.764-.099 1.52.166 2.123.63-.81 1.446-2.27 1.774-3.312 1.317z"/></g><defs><clipPath id="clip0"><path fill="#fff" d="M0 0h35v35H0z"/></clipPath></defs></svg>