<svg width="32" height="32" fill="none" xmlns="http://www.w3.org/2000/svg"><path d="M29.355 10.79A5.133 5.133 0 0031.5 6.622v-.207c0-.978-.355-1.9-1.006-2.62A3.504 3.504 0 0027 .5h-4.01a2.493 2.493 0 00-2.49 2.49c0 .906.502 1.722 1.265 2.157-.467.803-1.265 2.45-1.265 4.353v.36l1.5.5v.933a2.186 2.186 0 001.964 2.184 3.553 3.553 0 01-.82 1.836 8.906 8.906 0 00-2.117 5.187h-1.32l-.57-.57a1.46 1.46 0 00-1.038-.43 1.46 1.46 0 00-1.313.81l-.106.209c-.06-.008-.119-.019-.18-.019h-1.192l-.094-.188a1.461 1.461 0 00-1.315-.812c-.391 0-.76.152-1.038.43l-.57.57h-1.357l-.1-.703a8.929 8.929 0 00-1.981-4.455 3.675 3.675 0 01-.81-1.866A2.183 2.183 0 0010 11.293v-.932l1.5-.5V9.5c0-1.903-.798-3.55-1.265-4.353A2.492 2.492 0 0011.5 2.99V1.708A1.208 1.208 0 009.44.853a2.192 2.192 0 01-1.561.647H4a2.503 2.503 0 00-2.492 2.292A3.884 3.884 0 00.5 6.415v.207c0 1.65.802 3.209 2.144 4.168L4 11.758v2.453c-.472.204-.876.549-1.152 1.006a2.526 2.526 0 00-.342 1.283H2.5v15H11v-6h.998c.552 0 1-.448 1-1H19c0 .552.448 1 1 1h1v6h7c1.103 0 2-.897 2-2v-1.139a.997.997 0 00.5-.861v-11c0-1.379-1.122-2.5-2.5-2.5v-2.242l1.355-.968zM9.843 19.938l.075.526a2.488 2.488 0 01-2.07-2.052l-.33-1.976c.318.034.638.054.957.057a7.932 7.932 0 011.369 3.445zM9 9.64v1.653c0 .318-.129.63-.354.854-.228.228-.53.353-.853.353H6v1h1.032c.077.694.31 1.363.678 1.956-.16-.015-.319-.039-.478-.063A2.495 2.495 0 005 14V9.707A.993.993 0 004.707 9l-.5-.5A.712.712 0 014 8a.5.5 0 01.5-.5H5v-1c0-.551.449-1 1-1h2.86c.135 0 .269-.01.402-.027.348.566 1.125 2.003 1.227 3.67L9 9.64zm-5.774.335A4.13 4.13 0 011.5 6.623v-.207c0-.779.303-1.511.853-2.061l.147-.147V4c0-.827.673-1.5 1.5-1.5h3.878c.857 0 1.662-.333 2.268-.94.12-.119.354-.022.354.147v1.282c0 .667-.448 1.256-1.089 1.436-.179.05-.364.075-.55.075H6c-1.103 0-2 .897-2 2v.085C3.418 6.792 3 7.348 3 8c0 .456.178.885.5 1.207l.5.5v.821l-.775-.553zM7 30.5c0-.552.449-1 1-1v-1c-1.103 0-2 .897-2 2H3.5v-3H10v3H7zm3-4H3.5v-4.792C4.543 23.957 6.83 25.5 9.405 25.5H10v1zm1.998-2H9.405c-2.712 0-5.052-2.021-5.445-4.703l-.446-3.043c-.045-.38.023-.742.19-1.02A1.506 1.506 0 015 15c.759 0 1.397.57 1.49 1.35l.373 2.228a3.49 3.49 0 003.453 2.922h1.683v3zm10.992-23H27c1.378 0 2.5 1.122 2.5 2.5v.207l.146.147c.551.55.854 1.282.854 2.06v.208a4.129 4.129 0 01-1.726 3.354l-.774.552v-.821l.5-.5c.323-.323.5-.751.5-1.207 0-.652-.418-1.208-1-1.415V6.5c0-1.103-.897-2-2-2h-2.86c-.187 0-.372-.026-.551-.075a1.49 1.49 0 01.4-2.925zm.497 14.997a10.23 10.23 0 002.036-.219c-.007.075-.023.146-.023.222v10H22v-5.39a7.91 7.91 0 011.486-4.613zM29.5 27.5H26.5v-1h3v1zm-16.503-4v-2.293l.57-.57c.215-.213.617-.148.752.122l.37.741h1.81a.5.5 0 01.5.5c0 .827-.674 1.5-1.5 1.5h-2.502zm4.489 0c.318-.419.513-.935.513-1.5 0-.404-.162-.77-.422-1.04l.102-.201a.484.484 0 01.75-.122l.57.57V23.5h-1.513zm2.513 1v-3h1v3h-1zm2 3h3.5c0 .369.203.688.5.861V29.5c0 .366.106.704.278 1H22v-3zm6 3c-.552 0-1-.448-1-1v-1h2v1c0 .552-.448 1-1 1zm1.5-14v9h-3v-9c0-.827.673-1.5 1.5-1.5s1.5.673 1.5 1.5zm-1.707-8l-.5.5a.993.993 0 00-.293.707v4.505c-.454.2-.835.53-1.101.944a9.28 9.28 0 01-1.623.3c.378-.59.616-1.258.693-1.955L26 13.5v-1h-1.793c-.323 0-.626-.126-.854-.354a1.215 1.215 0 01-.353-.853V9.64l-1.489-.497c.102-1.668.88-3.104 1.227-3.67.133.018.267.027.402.027H26c.552 0 1 .449 1 1v1h.5a.5.5 0 01.5.5.712.712 0 01-.207.5z" fill="#FFC582"/><path d="M15.354 26.854l-.707-.707-2.354 2.353 2.354 2.354.707-.707L14.207 29H20v-1h-5.793l1.146-1.146zM17.146 12.646l.707.707L20.207 11l-2.354-2.354-.707.707 1.147 1.147H12.5v1h5.793l-1.146 1.146z" fill="#FFC582"/></svg>