<svg width="17" height="8" fill="none" xmlns="http://www.w3.org/2000/svg"><path d="M.647 3.646a.5.5 0 000 .708l3.182 3.182a.5.5 0 10.707-.708L1.707 4l2.829-2.828a.5.5 0 10-.707-.708L.647 3.646zM10 3.5H1v1h9v-1z" fill="#FFC582"/><path d="M.647 3.646a.5.5 0 000 .708l3.182 3.182a.5.5 0 10.707-.708L1.707 4l2.829-2.828a.5.5 0 10-.707-.708L.647 3.646zM10 3.5H1v1h9v-1z" fill="#FFC582"/><path d="M.647 3.646a.5.5 0 000 .708l3.182 3.182a.5.5 0 10.707-.708L1.707 4l2.829-2.828a.5.5 0 10-.707-.708L.647 3.646zM10 3.5H1v1h9v-1z" fill="#FFC582"/><path d="M.647 3.646a.5.5 0 000 .708l3.182 3.182a.5.5 0 10.707-.708L1.707 4l2.829-2.828a.5.5 0 10-.707-.708L.647 3.646zM10 3.5H1v1h9v-1z" fill="#FFC582"/><path d="M16.354 4.354a.5.5 0 000-.708L13.172.464a.5.5 0 10-.707.708L15.293 4l-2.828 2.828a.5.5 0 10.707.708l3.182-3.182zM8 4.5h8v-1H8v1z" fill="#FFC582"/></svg>