<svg width="18" height="18" fill="none" xmlns="http://www.w3.org/2000/svg"><g clip-path="url(#clip0)" fill="#FFC582"><path d="M16.626 7.875h-.876a.862.862 0 00-.823-.633h-.935V4.956a.241.241 0 00-.117-.213L7.28.934a.244.244 0 00-.245 0L.44 4.744a.245.245 0 00-.122.212v7.618a.246.246 0 00.123.213l6.597 3.81a.259.259 0 00.25 0l3.47-2.003v1.447a1.044 1.044 0 001.052 1.045h4.817a1.05 1.05 0 001.058-1.045V8.936a1.062 1.062 0 00-1.058-1.06zm-1.69-.14a.357.357 0 01.357.357v.024a.357.357 0 01-.357.357h-1.43a.357.357 0 01-.357-.357v-.024a.357.357 0 01.357-.357h1.43zM7.16 1.432L9.9 3.014 3.797 6.54 1.055 4.956 7.16 1.432zm-.234 14.525L.809 12.432v-7.05l6.117 3.525v7.05zM7.16 8.48L4.289 6.823l6.104-3.525 2.872 1.658L7.16 8.481zm3.598.455v5.09l-3.34 1.93v-7.05L13.5 5.383v1.86h.008a.863.863 0 00-.823.633h-.876a1.056 1.056 0 00-1.051 1.061zm6.434 7.105a.554.554 0 01-.566.553H11.81a.547.547 0 01-.559-.553V8.936a.564.564 0 01.559-.569h.885a.842.842 0 00.814.598h1.42a.842.842 0 00.813-.598h.885a.57.57 0 01.566.57v7.104z"/><path d="M12.092 11.426h.258a.246.246 0 000-.492h-.01v-.668h.679a.237.237 0 00.234.166.247.247 0 00.247-.246v-.165a.25.25 0 00-.249-.248h-1.159a.246.246 0 00-.244.248v1.159a.244.244 0 00.244.246zM12.094 13.676h1.16a.246.246 0 00.246-.246v-1.16a.246.246 0 00-.246-.247h-1.16a.246.246 0 00-.246.247v1.16a.246.246 0 00.246.246zm.246-1.16h.668v.668h-.668v-.668zM12.35 15.434h-.01v-.668h.665a.247.247 0 00.495 0v-.237a.257.257 0 00-.249-.256h-1.159a.253.253 0 00-.244.256v1.16a.237.237 0 00.244.237h.258a.246.246 0 100-.492z"/><path d="M13.818 10.075l-.72.72-.22-.218a.246.246 0 10-.348.348l.393.393a.246.246 0 00.348 0l.895-.895a.246.246 0 00-.348-.348zM13.818 14.62l-.72.72-.22-.22a.246.246 0 10-.348.349l.393.393a.245.245 0 00.348 0l.895-.895a.246.246 0 10-.348-.348zM16.343 10.371h-1.546a.246.246 0 100 .492h1.546a.246.246 0 100-.492zM16.343 12.621h-1.546a.246.246 0 100 .492h1.546a.246.246 0 100-.492zM16.343 14.871h-1.546a.246.246 0 100 .492h1.546a.246.246 0 100-.492z"/></g><defs><clipPath id="clip0"><path fill="#fff" d="M0 0h18v18H0z"/></clipPath></defs></svg>