<svg width="18" height="18" fill="none" xmlns="http://www.w3.org/2000/svg"><path d="M14.74 7.827l1.062-1.84a3.95 3.95 0 000-3.991A3.95 3.95 0 0012.346 0H5.65a3.95 3.95 0 00-3.456 1.995 3.95 3.95 0 000 3.991l1.062 1.841c.212.367.2.817-.03 1.176a6.826 6.826 0 00-1.077 3.688c0 1.806.688 3.187 2.045 4.105C5.358 17.584 7.02 18 8.998 18c2.09 0 3.815-.462 4.989-1.335a.267.267 0 10-.32-.43c-1.08.805-2.695 1.23-4.67 1.23-1.871 0-3.428-.384-4.503-1.111-1.201-.813-1.81-2.045-1.81-3.663 0-1.21.343-2.385.993-3.4A1.661 1.661 0 003.72 7.56l-.93-1.61 1.39-.802.57.988a1.571 1.571 0 001.948.674 6.284 6.284 0 012.3-.433c.793 0 1.567.146 2.3.433.194.075.393.112.589.112.549 0 1.07-.286 1.359-.786l.57-.988 1.39.802-.93 1.61a1.66 1.66 0 00.042 1.732c.65 1.014.994 2.19.994 3.4 0 1.148-.31 2.109-.92 2.856a.267.267 0 00.414.338c.69-.845 1.04-1.92 1.04-3.195a6.824 6.824 0 00-1.077-3.688 1.127 1.127 0 01-.03-1.176zm-1.958-1.959a1.04 1.04 0 01-1.29.444 6.818 6.818 0 00-2.494-.47c-.861 0-1.7.158-2.495.47a1.04 1.04 0 01-1.29-.444L4.51 4.65a1.304 1.304 0 010-1.317 1.31 1.31 0 01.701-.584.267.267 0 10-.176-.505 1.844 1.844 0 00-.988.822 1.83 1.83 0 00-.117 1.61l-1.397.807a3.416 3.416 0 01.125-3.22A3.42 3.42 0 015.65.536h6.696c1.25 0 2.368.646 2.993 1.728a3.415 3.415 0 01.125 3.22l-1.398-.807a1.83 1.83 0 00-.115-1.608 1.878 1.878 0 00-1.63-.929H6.183a.267.267 0 100 .535h6.136c.486 0 .933.253 1.167.66.237.412.237.904 0 1.315l-.705 1.22z" fill="#FFC582"/><path d="M8.328 12.134l.562-.703a.132.132 0 00.027-.084c0-.112-.14-.221-.246-.221-.051 0-.09.02-.12.064l-.667.907v-.836c0-.093-.108-.135-.215-.135-.099 0-.214.035-.214.135v2.055c0 .095.11.138.214.138.107 0 .215-.047.215-.138v-.617l.16-.203.588.89a.17.17 0 00.15.084c.126 0 .255-.108.255-.214a.132.132 0 00-.023-.078l-.686-1.044zM10.116 11.504c.266 0 .31.163.32.304.002.09.076.139.214.139.132 0 .214-.035.214-.205 0-.369-.307-.616-.764-.616-.64 0-.736.459-.736.733v.882c0 .472.266.732.748.732.485 0 .752-.26.752-.732v-.377c0-.07-.047-.141-.138-.141h-.538c-.088 0-.135.087-.135.17 0 .084.046.17.135.17h.247v.178c0 .232-.111.354-.323.354-.212 0-.32-.12-.32-.354v-.882c0-.236.11-.355.324-.355z" fill="#FFC582"/><path d="M8.998 8.972a3.206 3.206 0 00-3.202 3.202 3.206 3.206 0 003.202 3.202 3.206 3.206 0 003.202-3.202 3.206 3.206 0 00-3.202-3.202zm0 5.87a2.67 2.67 0 01-2.668-2.668 2.67 2.67 0 012.668-2.668 2.67 2.67 0 012.667 2.668 2.67 2.67 0 01-2.667 2.667z" fill="#FFC582"/></svg>