<svg width="34" height="34" fill="none" xmlns="http://www.w3.org/2000/svg"><path d="M25.217 23.233v-5.666a5.105 5.105 0 00-5.1-5.1H11.05a5.106 5.106 0 00-5.1 5.1v7.366h1.133v-7.366A3.971 3.971 0 0111.05 13.6h.899l3.234 3.234c.221.221.58.221.8 0l3.235-3.234h.899a3.971 3.971 0 013.966 3.967v5.666h1.134zm-9.634-7.6L13.551 13.6h4.064l-2.032 2.032z" fill="#FFC582"/><path d="M9.917 18.7h1.133v5.1H9.917v-5.1zM20.117 18.7h1.133v3.967h-1.133V18.7zM32.017 24.933H24.79a8.724 8.724 0 00-4.07-1.071 1.444 1.444 0 00-.127-.006c-1.467 0-2.91.368-4.199 1.07l-4.21.007A2.267 2.267 0 009.916 27.2c0 .044.002.09.008.134.008.155.033.31.073.46L6.804 26.33l-.052-.026-1.908-.871a2.417 2.417 0 00-3.427 2.197v.125a2.397 2.397 0 001.338 2.161l7.327 3.67a4.014 4.014 0 001.773.414h20.162a.567.567 0 00.566-.567V25.5a.567.567 0 00-.566-.567zm-7.934 7.933H11.855c-.44 0-.876-.102-1.27-.297L3.26 28.9a1.271 1.271 0 01-.711-1.144v-.125a1.284 1.284 0 011.821-1.167l1.892.864.051.025 4.5 2.063a.569.569 0 00.236.051h6.233v-1.133h-5.1a1.128 1.128 0 01-1.128-1.082.534.534 0 00-.005-.056 1.133 1.133 0 011.133-1.129h4.347a.566.566 0 00.277-.072l.136-.077a7.695 7.695 0 013.632-.933c.034.007.069.011.104.011 1.185.012 2.351.3 3.404.845v7.026zm7.367 0h-6.233v-6.8h6.233v6.8z" fill="#FFC582"/><path d="M26.35 30.6h1.133v1.133H26.35V30.6zM15.583 11.333A4.538 4.538 0 0020.117 6.8V4.533a4.533 4.533 0 10-9.067 0V6.8a4.539 4.539 0 004.533 4.533zm-3.4-6.8a3.4 3.4 0 016.8 0V6.8a3.4 3.4 0 11-6.8 0V4.533z" fill="#FFC582"/><path d="M14.45 4.533c.001-.48.304-.907.756-1.068l-.379-1.069a2.271 2.271 0 00-1.51 2.137V5.1h1.133v-.567z" fill="#FFC582"/></svg>