<svg width="8" height="16" fill="none" xmlns="http://www.w3.org/2000/svg"><path d="M3.647 15.354a.5.5 0 00.707 0l3.182-3.182a.5.5 0 10-.707-.708L4 14.293l-2.828-2.829a.5.5 0 10-.707.708l3.182 3.182zM3.5 6v9h1V6h-1z" fill="#FFC582"/><path d="M3.647 15.354a.5.5 0 00.707 0l3.182-3.182a.5.5 0 10-.707-.708L4 14.293l-2.828-2.829a.5.5 0 10-.707.708l3.182 3.182zM3.5 6v9h1V6h-1z" fill="#FFC582"/><path d="M3.647 15.354a.5.5 0 00.707 0l3.182-3.182a.5.5 0 10-.707-.708L4 14.293l-2.828-2.829a.5.5 0 10-.707.708l3.182 3.182zM3.5 6v9h1V6h-1z" fill="#FFC582"/><path d="M3.647 15.354a.5.5 0 00.707 0l3.182-3.182a.5.5 0 10-.707-.708L4 14.293l-2.828-2.829a.5.5 0 10-.707.708l3.182 3.182zM3.5 6v9h1V6h-1z" fill="#FFC582"/><path d="M4.354.646a.5.5 0 00-.707 0L.465 3.828a.5.5 0 10.707.708L4 1.707 6.83 4.536a.5.5 0 10.707-.708L4.354.646zM4.5 10V1h-1v9h1z" fill="#FFC582"/></svg>