<svg width="28" height="28" viewBox="0 0 28 28" fill="none" xmlns="http://www.w3.org/2000/svg">
<circle cx="13.72" cy="13.72" r="13.72" fill="#444054"/>
<g clip-path="url(#clip0)">
<path d="M8.75001 8.81616C7.80701 9.79566 8.00001 10.8362 8.00001 13.9972C8.00001 16.6222 7.54201 19.2537 9.93901 19.8732C10.6875 20.0657 17.3195 20.0657 18.067 19.8722C19.065 19.6147 19.877 18.8052 19.988 17.3937C20.0035 17.1967 20.0035 10.8012 19.9875 10.6002C19.8695 9.09666 18.944 8.23016 17.7245 8.05466C17.445 8.01416 17.389 8.00216 15.955 7.99966C10.8685 8.00216 9.75351 7.77566 8.75001 8.81616Z" fill="url(#paint0_linear)"/>
<path d="M13.999 9.56971C12.1835 9.56971 10.4595 9.40821 9.801 11.0982C9.529 11.7962 9.5685 12.7027 9.5685 14.0007C9.5685 15.1397 9.532 16.2102 9.801 16.9027C10.458 18.5937 12.196 18.4317 13.998 18.4317C15.7365 18.4317 17.529 18.6127 18.1955 16.9027C18.468 16.1977 18.428 15.3047 18.428 14.0007C18.428 12.2697 18.5235 11.1522 17.684 10.3132C16.834 9.46321 15.6845 9.56971 13.997 9.56971H13.999ZM13.602 10.3682C17.389 10.3622 17.871 9.94121 17.605 15.7897C17.5105 17.8582 15.9355 17.6312 13.9995 17.6312C10.4695 17.6312 10.368 17.5302 10.368 13.9987C10.368 10.4262 10.648 10.3702 13.602 10.3672V10.3682ZM16.364 11.1037C16.0705 11.1037 15.8325 11.3417 15.8325 11.6352C15.8325 11.9287 16.0705 12.1667 16.364 12.1667C16.6575 12.1667 16.8955 11.9287 16.8955 11.6352C16.8955 11.3417 16.6575 11.1037 16.364 11.1037ZM13.999 11.7252C12.7425 11.7252 11.724 12.7442 11.724 14.0007C11.724 15.2572 12.7425 16.2757 13.999 16.2757C15.2555 16.2757 16.2735 15.2572 16.2735 14.0007C16.2735 12.7442 15.2555 11.7252 13.999 11.7252ZM13.999 12.5237C15.9515 12.5237 15.954 15.4777 13.999 15.4777C12.047 15.4777 12.044 12.5237 13.999 12.5237Z" fill="white"/>
</g>
<defs>
<linearGradient id="paint0_linear" x1="8.77302" y1="19.2332" x2="19.9257" y2="9.58065" gradientUnits="userSpaceOnUse">
<stop stop-color="#FFDD55"/>
<stop offset="0.5" stop-color="#FF543E"/>
<stop offset="1" stop-color="#C837AB"/>
</linearGradient>
<clipPath id="clip0">
<rect width="12" height="12" fill="white" transform="translate(8 8)"/>
</clipPath>
</defs>
</svg>
