<svg width="46" height="34" viewBox="0 0 46 34" fill="none" xmlns="http://www.w3.org/2000/svg">
<g clip-path="url(#clip0)">
<path d="M34.1287 14.4182H41.5449V15.9033H34.1287V14.4182Z" fill="#FFC582"/>
<path d="M30.416 18.8735H41.5449V20.3586H30.416V18.8735Z" fill="#FFC582"/>
<path d="M14.8321 23.3286H41.5449V24.8137H14.8321V23.3286Z" fill="#FFC582"/>
<path d="M37.0897 27.7749H41.5449V29.2599H37.0897V27.7749Z" fill="#FFC582"/>
<path d="M29.6735 27.7749H34.1286V29.2599H29.6735V27.7749Z" fill="#FFC582"/>
<path d="M22.2482 27.7749H26.7034V29.2599H22.2482V27.7749Z" fill="#FFC582"/>
<path d="M15.5746 13.6758C16.1179 13.6758 16.6159 13.8297 17.0506 14.0833C17.5033 13.8207 18.0104 13.6758 18.5447 13.6758C20.1837 13.6758 21.5148 15.0069 21.5148 16.6459C21.5148 18.2849 20.1837 19.616 18.5447 19.616C18.0104 19.616 17.5033 19.4711 17.0506 19.2085C16.6159 19.462 16.1179 19.616 15.5746 19.616C13.9356 19.616 12.6045 18.2849 12.6045 16.6459C12.6045 15.0069 13.9356 13.6758 15.5746 13.6758ZM18.1644 18.0766C18.2911 18.1128 18.4179 18.1309 18.5447 18.1309C19.3596 18.1309 20.0297 17.4609 20.0297 16.6459C20.0297 15.8309 19.3596 15.1608 18.5447 15.1608C18.4179 15.1608 18.2821 15.188 18.1644 15.2152C18.3998 15.6408 18.5447 16.1207 18.5447 16.6459C18.5447 17.1711 18.3998 17.651 18.1644 18.0766ZM15.5746 18.1309C16.3895 18.1309 17.0596 17.4609 17.0596 16.6459C17.0596 15.8309 16.3895 15.1608 15.5746 15.1608C14.7596 15.1608 14.0895 15.8309 14.0895 16.6459C14.0895 17.4609 14.7596 18.1309 15.5746 18.1309Z" fill="#FFC582"/>
<path d="M1.5481 10.2438L32.6798 0.409866C32.8971 0.337424 34.6357 -0.233053 35.4688 1.8587L38.0314 9.96309H43.7724C45.0039 9.97214 46 10.9682 46 12.1907V31.4873C46 32.7188 45.0039 33.7149 43.7724 33.7149H11.1194C10.3407 33.7149 9.66154 33.3164 9.26311 32.7097C9.26311 32.7097 8.25799 32.9904 8.03161 32.9904C7.05365 32.9904 6.20246 32.3656 5.9127 31.4329L0.0992699 13.0328C-0.0818329 12.4714 -0.208607 10.7147 1.5481 10.2438ZM34.9527 5.13667L19.6585 9.96309H29.5196L35.8491 7.96189L34.9527 5.13667ZM36.2928 9.38356L34.4365 9.97214H36.4739L36.2928 9.38356ZM10.3769 31.4873H10.386C10.386 31.8948 10.721 32.2298 11.1285 32.2298H43.7724C44.1799 32.2298 44.5149 31.8948 44.5149 31.4873V12.1907C44.5149 11.7832 44.1799 11.4481 43.7724 11.4481H11.1194C10.7119 11.4481 10.3769 11.7832 10.3769 12.1907V31.4873ZM7.32531 30.9892C7.44302 31.3696 7.87767 31.5959 8.25799 31.4692L8.90091 31.2699V18.0403L3.74851 19.6703L7.32531 30.9892ZM3.30481 18.2486L8.90091 16.4828V13.3678L2.40834 15.4143L3.30481 18.2486ZM1.51188 12.5891L1.95558 14.0017L8.93713 11.8013C9.12729 10.7599 10.0328 9.97214 11.1194 9.97214H14.7324L34.509 3.72406L34.0653 2.31146C33.9475 1.93114 33.522 1.70476 33.1326 1.83153L2.00086 11.6564C1.37605 11.8194 1.45755 12.3989 1.51188 12.5891Z" fill="#FFC582"/>
</g>
<defs>
<clipPath id="clip0">
<rect width="46" height="46" fill="white" transform="matrix(-1 0 0 1 46 -6)"/>
</clipPath>
</defs>
</svg>
