<svg width="168" height="43" viewBox="0 0 168 43" fill="none" xmlns="http://www.w3.org/2000/svg">
<path d="M25.08 32H19.41L17.975 28.045H7.965L6.495 32H0.825L9.855 8.655H16.085L25.08 32ZM16.61 23.67L12.97 13.625L9.33 23.67H16.61ZM40.1445 32.42C36.5978 32.42 33.6345 31.3 31.2545 29.06C28.8978 26.7967 27.7195 23.8917 27.7195 20.345C27.7195 16.7983 28.8978 13.905 31.2545 11.665C33.6345 9.40167 36.5978 8.27 40.1445 8.27C44.5078 8.27 47.7628 10.1717 49.9095 13.975L45.6395 16.075C45.1262 15.095 44.3678 14.29 43.3645 13.66C42.3845 13.0067 41.3112 12.68 40.1445 12.68C38.0212 12.68 36.2712 13.4033 34.8945 14.85C33.5178 16.2967 32.8295 18.1283 32.8295 20.345C32.8295 22.5617 33.5178 24.3933 34.8945 25.84C36.2712 27.2867 38.0212 28.01 40.1445 28.01C41.3112 28.01 42.3845 27.695 43.3645 27.065C44.3678 26.435 45.1262 25.6183 45.6395 24.615L49.9095 26.68C47.6928 30.5067 44.4378 32.42 40.1445 32.42ZM66.9728 32.42C63.4261 32.42 60.4628 31.3 58.0828 29.06C55.7261 26.7967 54.5478 23.8917 54.5478 20.345C54.5478 16.7983 55.7261 13.905 58.0828 11.665C60.4628 9.40167 63.4261 8.27 66.9728 8.27C71.3361 8.27 74.5911 10.1717 76.7378 13.975L72.4678 16.075C71.9545 15.095 71.1961 14.29 70.1928 13.66C69.2128 13.0067 68.1395 12.68 66.9728 12.68C64.8495 12.68 63.0995 13.4033 61.7228 14.85C60.3461 16.2967 59.6578 18.1283 59.6578 20.345C59.6578 22.5617 60.3461 24.3933 61.7228 25.84C63.0995 27.2867 64.8495 28.01 66.9728 28.01C68.1395 28.01 69.2128 27.695 70.1928 27.065C71.1961 26.435 71.9545 25.6183 72.4678 24.615L76.7378 26.68C74.5211 30.5067 71.2661 32.42 66.9728 32.42ZM93.5561 32.42C90.0328 32.42 87.1161 31.2883 84.8061 29.025C82.5195 26.7383 81.3761 23.845 81.3761 20.345C81.3761 16.845 82.5195 13.9633 84.8061 11.7C87.1161 9.41333 90.0328 8.27 93.5561 8.27C97.1028 8.27 100.019 9.40167 102.306 11.665C104.616 13.9283 105.771 16.8217 105.771 20.345C105.771 23.8683 104.616 26.7617 102.306 29.025C100.019 31.2883 97.1028 32.42 93.5561 32.42ZM88.4111 25.84C89.7178 27.2867 91.4328 28.01 93.5561 28.01C95.6795 28.01 97.3945 27.2867 98.7011 25.84C100.008 24.3933 100.661 22.5617 100.661 20.345C100.661 18.1283 100.008 16.2967 98.7011 14.85C97.3945 13.4033 95.6795 12.68 93.5561 12.68C91.4328 12.68 89.7178 13.4033 88.4111 14.85C87.1278 16.2967 86.4861 18.1283 86.4861 20.345C86.4861 22.5617 87.1278 24.3933 88.4111 25.84ZM137.364 32H132.359V15.655L125.779 32H123.609L117.029 15.655V32H112.059V8.655H119.024L124.694 22.76L130.364 8.655H137.364V32Z" fill="white"/>
<path d="M149.164 17H147.76V10.232H145.336V8.996H151.588V10.232H149.164V17ZM159.15 17H154.218V8.996H155.622V15.764H159.15V17Z" fill="white"/>
</svg>
