<svg width="14" height="14" viewBox="0 0 14 14" fill="none" xmlns="http://www.w3.org/2000/svg">
<path d="M7 1C3.69164 1 1 3.69164 1 7C1 10.3084 3.69164 13 7 13C8.05506 13 9.09252 12.7224 10.0007 12.1969L9.25 10.8983C8.56959 11.292 7.79138 11.5 7 11.5C4.51856 11.5 2.49999 9.48143 2.49999 7C2.49999 4.51856 4.51856 2.49999 7 2.49999C9.48143 2.49999 11.5 4.51856 11.5 7V7.65332C11.5 8.14405 11.1847 8.49999 10.75 8.49999C10.3365 8.49999 9.99999 8.16345 9.99999 7.74998V4.75H8.96322C8.4356 4.28906 7.75395 3.99999 7 3.99999C5.34582 3.99999 3.99999 5.34582 3.99999 7C3.99999 8.65418 5.34582 10 7 10C7.78772 10 8.49992 9.6885 9.03578 9.19014C9.44883 9.68101 10.0597 10 10.75 10C12.0116 10 13 8.96914 13 7.65332V7C13 3.69164 10.3084 1 7 1V1ZM7 8.49999C6.17272 8.49999 5.50001 7.82726 5.50001 7C5.50001 6.17272 6.17274 5.50001 7 5.50001C7.82728 5.50001 8.49999 6.17274 8.49999 7C8.49999 7.82728 7.82728 8.49999 7 8.49999Z" fill="#EB3F57"/>
</svg>
