<svg width="61" height="61" viewBox="0 0 61 61" fill="none" xmlns="http://www.w3.org/2000/svg">
<path d="M30.1157 32.0004L23.1823 25.067C22.9382 24.8229 22.9382 24.4272 23.1823 24.1831C23.4264 23.939 23.8222 23.939 24.0663 24.1831L30.9996 31.1164L37.933 24.1831C38.1771 23.939 38.5728 23.939 38.8169 24.1831C39.061 24.4272 39.061 24.8229 38.8169 25.067L31.8836 32.0004L38.8169 38.9337C39.061 39.1778 39.061 39.5736 38.8169 39.8177C38.6949 39.9397 38.5349 40.0007 38.3749 40.0007C38.215 40.0007 38.055 39.9397 37.9329 39.8177L30.9996 32.8843L24.0663 39.8177C23.9443 39.9397 23.7843 40.0007 23.6243 40.0007C23.4643 40.0007 23.3044 39.9397 23.1823 39.8177C22.9382 39.5736 22.9382 39.1778 23.1823 38.9337L30.1157 32.0004Z" fill="#AEAEAE"/>
<circle cx="30.5" cy="30.5" r="30" stroke="white" stroke-opacity="0.23"/>
</svg>
