<svg width="51" height="51" viewBox="0 0 51 51" fill="none" xmlns="http://www.w3.org/2000/svg">
<g clip-path="url(#clip0)">
<path d="M35.1854 22.8737C35.0738 22.749 34.8884 22.7237 34.7475 22.8137L33.8532 23.3899V16.13C33.8266 15.7159 33.4694 15.4017 33.0553 15.4283C33.0508 15.4286 33.0464 15.429 33.042 15.4293H17.4941C17.0805 15.3954 16.7177 15.7031 16.6838 16.1167C16.6834 16.1211 16.6831 16.1255 16.6828 16.13V23.0995L16.2541 22.823C16.1085 22.719 15.9073 22.7451 15.7932 22.8829C15.2698 23.5218 14.989 24.325 15.0003 25.1508V32.3508C15.0188 33.9088 15.8669 35.5729 18.2408 35.5729H32.77C34.328 35.5729 35.9967 34.7247 35.9967 32.3462V25.1508C36.0349 24.3148 35.7437 23.4972 35.1854 22.8737ZM17.4941 16.1207H33.0512C33.1249 16.1207 33.1664 16.1484 33.1664 16.1207V23.8509L25.5054 28.8199L17.3789 23.5513L17.3696 16.1622C17.4039 16.1324 17.4487 16.1175 17.4941 16.1207ZM15.8254 33.1206C15.7632 32.8687 15.7307 32.6103 15.7286 32.3508L15.7148 25.1508C15.7101 24.5981 15.8602 24.0553 16.1481 23.5835L22.7766 27.8796L15.8254 33.1206ZM32.77 34.8814L32.7654 34.8768H18.2408C17.0331 34.8768 16.397 34.3652 16.0697 33.7844L23.3897 28.2668L25.3164 29.516C25.3622 29.5391 25.4127 29.5516 25.4639 29.5529C25.5152 29.5516 25.5656 29.5391 25.6114 29.516L27.4875 28.2991L34.8351 33.8305C34.3564 34.4933 33.5876 34.8846 32.77 34.8814ZM35.3006 25.1462L35.296 32.3462C35.2972 32.626 35.2632 32.9047 35.1946 33.1759L28.1928 27.9073L34.8673 23.5789C35.1701 24.0441 35.3215 24.5916 35.3006 25.1462Z" fill="#FFC582"/>
<path d="M26.9451 18.1752C25.3871 17.375 23.4754 17.9893 22.6752 19.5474C22.4447 19.9961 22.3246 20.4933 22.3249 20.9977C22.335 22.7463 23.7567 24.1578 25.5054 24.1552C25.7635 24.1555 26.0206 24.123 26.2706 24.0584C26.3631 24.0458 26.4446 23.9914 26.4918 23.9109C26.5383 23.8348 26.5485 23.7418 26.5195 23.6574C26.5112 23.584 26.4728 23.5172 26.4135 23.473C26.3317 23.4158 26.2289 23.3973 26.1323 23.4223C25.929 23.4731 25.7195 23.4948 25.51 23.4869C24.1252 23.4894 23.0004 22.3688 22.9978 20.9839C22.9953 19.599 24.1159 18.4743 25.5008 18.4717C26.8857 18.4692 28.0105 19.5898 28.013 20.9747C28.0171 21.3748 27.9204 21.7695 27.7318 22.1225C27.6469 22.2901 27.5069 22.4236 27.3354 22.5004H27.2662C27.1694 22.5004 27.1648 22.2469 27.1648 22.2469V20.9839C27.2132 20.0636 26.5065 19.2783 25.5862 19.2299C24.6659 19.1815 23.8806 19.8882 23.8322 20.8085C23.8291 20.8669 23.8291 20.9254 23.8322 20.9838C23.8141 21.9282 24.5612 22.7103 25.5054 22.7355C25.8744 22.7375 26.2322 22.6084 26.5149 22.3713V22.3944C26.518 22.5698 26.5742 22.7402 26.6762 22.883C26.815 23.0677 27.0354 23.1727 27.2662 23.1641C27.335 23.1741 27.4049 23.1741 27.4737 23.1641C27.8311 23.0467 28.1319 22.8001 28.3172 22.4727V22.4451C29.1174 20.8871 28.5031 18.9754 26.9451 18.1752ZM25.5054 22.0625L25.51 22.0671C24.9451 22.0501 24.5009 21.5785 24.5179 21.0135C24.5182 21.0052 24.5185 20.9968 24.519 20.9885C24.4929 20.4164 24.9335 19.9305 25.5054 19.9007C26.0783 19.9329 26.5215 20.415 26.5057 20.9885C26.5238 21.5605 26.0772 22.0401 25.5054 22.0625Z" fill="#FFC582"/>
</g>
<circle cx="25.5" cy="25.5" r="25" stroke="white" stroke-opacity="0.3"/>
<defs>
<clipPath id="clip0">
<rect width="21" height="21" fill="white" transform="translate(15 15)"/>
</clipPath>
</defs>
</svg>
