<svg width="14" height="15" fill="none" xmlns="http://www.w3.org/2000/svg"><g clip-path="url(#clip0)" fill="#FFC582"><path d="M2.462 11.506a1.09 1.09 0 00-.551.15A7.151 7.151 0 01.547 7.439C.547 3.658 3.442.581 7 .581c.433 0 .865.046 1.285.136.148.032.292-.07.322-.227a.29.29 0 00-.214-.343A6.65 6.65 0 007 0C5.13 0 3.372.774 2.05 2.179.728 3.584 0 5.452 0 7.439c0 1.672.534 3.303 1.506 4.61a1.267 1.267 0 00-.192.678c0 .326.12.633.336.863.217.23.506.357.812.357.307 0 .595-.127.812-.357.217-.23.337-.537.337-.863 0-.326-.12-.633-.337-.863a1.108 1.108 0 00-.812-.358zm.426 1.673a.58.58 0 01-.851 0 .656.656 0 01-.176-.452c0-.17.062-.331.176-.452a.58.58 0 01.85 0c.114.12.177.281.177.452 0 .17-.063.331-.176.452zM12.493 2.832a1.28 1.28 0 00-.143-1.54 1.108 1.108 0 00-.812-.357c-.307 0-.595.127-.812.358-.217.23-.337.537-.337.863 0 .326.12.632.337.863.216.23.505.357.812.357.196 0 .384-.052.551-.15a7.152 7.152 0 011.364 4.217c0 3.782-2.895 6.858-6.453 6.858-.428 0-.857-.044-1.273-.133-.148-.031-.292.07-.322.228a.29.29 0 00.215.342 6.65 6.65 0 001.38.145c1.87 0 3.628-.774 4.95-2.18C13.272 11.3 14 9.43 14 7.444a7.755 7.755 0 00-1.507-4.61zm-1.38-.224a.656.656 0 01-.177-.452c0-.171.063-.332.176-.452a.58.58 0 01.851 0 .669.669 0 010 .904.58.58 0 01-.85 0z"/><path d="M5.872 12.439c0 .16.122.29.273.29h1.71c.15 0 .273-.13.273-.29v-.564c.36-.102.704-.254 1.027-.452l.374.398c.051.055.12.085.193.085.073 0 .142-.03.194-.085l1.208-1.285a.304.304 0 000-.411l-.374-.398c.186-.343.329-.708.425-1.09h.529c.15 0 .273-.13.273-.29V6.528c0-.16-.122-.29-.273-.29h-.529a4.718 4.718 0 00-.425-1.091l.372-.395a.301.301 0 000-.411l-1.21-1.285a.262.262 0 00-.386 0l-.371.395A4.146 4.146 0 008.128 3v-.558c0-.16-.122-.29-.273-.29h-1.71c-.15 0-.273.13-.273.29V3c-.36.103-.704.254-1.026.452l-.372-.395a.262.262 0 00-.387 0L2.878 4.342a.3.3 0 00-.08.205.3.3 0 00.08.206l.372.395a4.713 4.713 0 00-.425 1.09h-.528c-.15 0-.273.13-.273.291l-.001 1.817a.3.3 0 00.08.206c.051.054.12.085.193.085h.529c.096.382.239.747.425 1.09l-.374.398a.304.304 0 000 .41l1.208 1.286c.052.055.121.085.194.085.072 0 .142-.03.193-.085l.374-.398c.324.198.667.35 1.027.452v.564zm-.92-1.627a.262.262 0 00-.341.039l-.333.354-.822-.875.333-.353a.304.304 0 00.036-.363 4.119 4.119 0 01-.518-1.329.278.278 0 00-.267-.23h-.47V6.82h.47c.129 0 .24-.096.267-.23.096-.473.27-.92.518-1.328a.304.304 0 00-.036-.363l-.33-.352.822-.873.33.35a.262.262 0 00.342.04 3.623 3.623 0 011.25-.551.287.287 0 00.216-.284v-.496H7.58v.496c0 .137.09.255.216.284.446.102.867.287 1.25.55.108.075.25.059.342-.038l.33-.351.823.873-.33.352a.304.304 0 00-.037.363c.248.408.422.855.518 1.328.027.134.138.23.267.23h.47v1.236h-.47a.278.278 0 00-.267.23c-.096.473-.27.92-.518 1.328a.304.304 0 00.036.363l.333.353-.822.874-.333-.353a.262.262 0 00-.342-.039 3.627 3.627 0 01-1.25.55.287.287 0 00-.216.285v.501H6.42v-.501a.287.287 0 00-.216-.284 3.625 3.625 0 01-1.25-.55z"/><path d="M9.26 7.44c0-1.324-1.014-2.4-2.26-2.4-1.246 0-2.26 1.076-2.26 2.4 0 1.325 1.014 2.402 2.26 2.402 1.246 0 2.26-1.077 2.26-2.401zm-3.973 0c0-1.003.769-1.82 1.713-1.82.944 0 1.712.817 1.712 1.82 0 1.004-.768 1.82-1.712 1.82s-1.713-.816-1.713-1.82zM9.518 1.104a.267.267 0 00.193-.085.307.307 0 000-.414.267.267 0 00-.193-.086.266.266 0 00-.193.086.306.306 0 000 .414c.05.054.12.085.193.085zM4.494 13.785a.267.267 0 00-.193.086.306.306 0 000 .413c.05.055.121.086.193.086a.267.267 0 00.194-.086.306.306 0 000-.413.267.267 0 00-.194-.086z"/></g><defs><clipPath id="clip0"><path fill="#fff" d="M0 0h14v14.879H0z"/></clipPath></defs></svg>