<svg width="20" height="21" fill="none" xmlns="http://www.w3.org/2000/svg"><path d="M17.964 8.68h-.052V7.408a7.407 7.407 0 10-14.814 0v1.274h-.312C1.643 8.68.76 9.694.76 10.864v3.249a2.053 2.053 0 002.027 2.105H4.71a.494.494 0 00.468-.546V9.304c0-.311-.182-.623-.468-.623h-.571V7.407a6.368 6.368 0 0112.735 0v1.274H16.3c-.286 0-.468.312-.468.623v6.368a.494.494 0 00.468.546h.598l-.052.078a4.106 4.106 0 01-3.3 1.637 2.573 2.573 0 00-5.095.494A2.599 2.599 0 0011.051 21a2.677 2.677 0 001.871-.806c.333-.34.551-.777.624-1.247a5.146 5.146 0 004.133-2.053l.493-.728c1.118-.078 1.82-.78 1.82-1.794v-3.248c0-1.118-.832-2.443-2.028-2.443zM4.138 15.179H2.786a1.014 1.014 0 01-.987-1.065v-3.25c0-.597.415-1.143.987-1.143h1.352v5.458zm8.03 4.289a1.533 1.533 0 01-1.117.493 1.585 1.585 0 01-1.56-1.533 1.534 1.534 0 013.068-.001v.001c.021.386-.12.763-.39 1.04zm6.784-5.094c0 .701-.676.805-.988.805h-1.091V9.72h1.091c.572 0 .988.806.988 1.404v3.248z" fill="#FFC582"/></svg>