<svg width="68" height="59" fill="none" xmlns="http://www.w3.org/2000/svg"><path d="M60.266 32.153l-1.018-16.956a.95.95 0 00-.424-.736l-14.176-9.36a.95.95 0 00-.998-.029L.887 29.762a.95.95 0 00-.348 1.296l15.194 26.316a.95.95 0 001.297.348l42.763-24.69a.949.949 0 00.473-.879zm-43.363 23.45L2.659 30.93l41.433-23.92 13.29 8.774.953 15.896-41.432 23.921z" fill="#FFC582"/><path d="M51.12 16.11a2.849 2.849 0 102.848 4.935 2.849 2.849 0 00-2.848-4.935zm1.899 3.29a.95.95 0 11-.95-1.645.95.95 0 01.95 1.645zM8.45 35.264l-2.374-4.112a.95.95 0 00-1.645.95l2.374 4.111a.95.95 0 001.644-.95zM10.349 38.553l-.475-.822a.95.95 0 10-1.645.95l.475.822a.95.95 0 001.645-.95z" fill="#FFC582"/></svg>