<svg width="43" height="43" viewBox="0 0 43 43" fill="none" xmlns="http://www.w3.org/2000/svg">
<circle cx="21.3521" cy="21.3204" r="20.7193" fill="white"/>
<g clip-path="url(#clip0)">
<path d="M16.937 16.0879L21.3518 20.5027L25.7667 16.0879C25.9924 15.8621 26.3585 15.8621 26.5842 16.0879C26.81 16.3137 26.81 16.6797 26.5842 16.9055L22.1694 21.3203L26.5842 25.7352C26.81 25.9609 26.81 26.327 26.5842 26.5527C26.3585 26.7785 25.9924 26.7785 25.7667 26.5527L21.3518 22.1379L16.937 26.5527C16.7112 26.7785 16.3452 26.7785 16.1194 26.5527C15.8936 26.327 15.8936 25.9609 16.1194 25.7352L20.5343 21.3203L16.1194 16.9055C15.8936 16.6797 15.8936 16.3137 16.1194 16.0879C16.3452 15.8621 16.7112 15.8621 16.937 16.0879Z" fill="#EB3F57"/>
</g>
<defs>
<clipPath id="clip0">
<rect width="14.7995" height="14.7995" fill="white" transform="matrix(-0.707107 -0.707107 -0.707107 0.707107 31.8167 21.3203)"/>
</clipPath>
</defs>
</svg>
