<svg width="25" height="8" fill="none" xmlns="http://www.w3.org/2000/svg"><path d="M.646 3.646a.5.5 0 000 .708l3.182 3.182a.5.5 0 10.708-.708L1.707 4l2.829-2.828a.5.5 0 10-.708-.708L.646 3.646zM15 3.5H1v1h14v-1z" fill="#FFC582"/><path d="M.646 3.646a.5.5 0 000 .708l3.182 3.182a.5.5 0 10.708-.708L1.707 4l2.829-2.828a.5.5 0 10-.708-.708L.646 3.646zM15 3.5H1v1h14v-1z" fill="#FFC582"/><path d="M.646 3.646a.5.5 0 000 .708l3.182 3.182a.5.5 0 10.708-.708L1.707 4l2.829-2.828a.5.5 0 10-.708-.708L.646 3.646zM15 3.5H1v1h14v-1z" fill="#FFC582"/><path d="M.646 3.646a.5.5 0 000 .708l3.182 3.182a.5.5 0 10.708-.708L1.707 4l2.829-2.828a.5.5 0 10-.708-.708L.646 3.646zM15 3.5H1v1h14v-1z" fill="#FFC582"/><path d="M.646 3.646a.5.5 0 000 .708l3.182 3.182a.5.5 0 10.708-.708L1.707 4l2.829-2.828a.5.5 0 10-.708-.708L.646 3.646zM15 3.5H1v1h14v-1z" fill="#FFC582"/><path d="M.646 3.646a.5.5 0 000 .708l3.182 3.182a.5.5 0 10.708-.708L1.707 4l2.829-2.828a.5.5 0 10-.708-.708L.646 3.646zM15 3.5H1v1h14v-1z" fill="#FFC582"/><path d="M24.354 4.354a.5.5 0 000-.708L21.172.464a.5.5 0 10-.707.708L23.293 4l-2.828 2.828a.5.5 0 10.707.708l3.182-3.182zM9 4.5h15v-1H9v1z" fill="#FFC582"/><path d="M24.354 4.354a.5.5 0 000-.708L21.172.464a.5.5 0 10-.707.708L23.293 4l-2.828 2.828a.5.5 0 10.707.708l3.182-3.182zM9 4.5h15v-1H9v1z" fill="#FFC582"/><path d="M24.354 4.354a.5.5 0 000-.708L21.172.464a.5.5 0 10-.707.708L23.293 4l-2.828 2.828a.5.5 0 10.707.708l3.182-3.182zM9 4.5h15v-1H9v1z" fill="#FFC582"/><path d="M24.354 4.354a.5.5 0 000-.708L21.172.464a.5.5 0 10-.707.708L23.293 4l-2.828 2.828a.5.5 0 10.707.708l3.182-3.182zM9 4.5h15v-1H9v1z" fill="#FFC582"/><path d="M24.354 4.354a.5.5 0 000-.708L21.172.464a.5.5 0 10-.707.708L23.293 4l-2.828 2.828a.5.5 0 10.707.708l3.182-3.182zM9 4.5h15v-1H9v1z" fill="#FFC582"/><path d="M24.354 4.354a.5.5 0 000-.708L21.172.464a.5.5 0 10-.707.708L23.293 4l-2.828 2.828a.5.5 0 10.707.708l3.182-3.182zM9 4.5h15v-1H9v1z" fill="#FFC582"/></svg>