<svg width="16" height="15" viewBox="0 0 16 15" fill="none" xmlns="http://www.w3.org/2000/svg">
<path d="M1.09175 6.95006H7.33529V0.706523C7.33529 0.387236 7.5941 0.128418 7.91339 0.128418C8.23268 0.128418 8.4915 0.387236 8.4915 0.706523V6.95006H14.735C15.0543 6.95006 15.3131 7.20888 15.3131 7.52817C15.3131 7.84746 15.0543 8.10627 14.735 8.10627H8.4915V14.3498C8.4915 14.6691 8.23268 14.9279 7.91339 14.9279C7.5941 14.9279 7.33529 14.6691 7.33529 14.3498V8.10627H1.09175C0.772458 8.10627 0.51364 7.84746 0.51364 7.52817C0.51364 7.20888 0.772458 6.95006 1.09175 6.95006Z" fill="white"/>
</svg>
