<svg width="149" height="149" viewBox="0 0 149 149" fill="none" xmlns="http://www.w3.org/2000/svg">
<circle cx="74.5001" cy="74.5" r="74.5" fill="white"/>
<circle opacity="0.5" cx="74.5001" cy="74.5" r="68" stroke="#EB3F57"/>
<path d="M39.2727 72H33.5927V52.64L29.1527 57.16L25.9127 53.76L34.3127 45.32H39.2727V72ZM60.518 70.44C58.8114 71.8 56.7447 72.48 54.318 72.48C51.8914 72.48 49.8114 71.8 48.078 70.44C46.3714 69.0533 45.1447 67.3467 44.398 65.32C43.6514 63.2933 43.278 61.08 43.278 58.68C43.278 56.28 43.6514 54.0667 44.398 52.04C45.1447 50.0133 46.3714 48.32 48.078 46.96C49.8114 45.6 51.8914 44.92 54.318 44.92C56.7447 44.92 58.8114 45.6 60.518 46.96C62.2247 48.32 63.4514 50.0133 64.198 52.04C64.9714 54.0667 65.358 56.28 65.358 58.68C65.358 61.08 64.9714 63.2933 64.198 65.32C63.4514 67.3467 62.2247 69.0533 60.518 70.44ZM50.318 65.04C51.1714 66.64 52.5047 67.44 54.318 67.44C56.1314 67.44 57.4514 66.64 58.278 65.04C59.1314 63.44 59.558 61.32 59.558 58.68C59.558 56.04 59.1314 53.9333 58.278 52.36C57.4514 50.76 56.1314 49.96 54.318 49.96C52.5047 49.96 51.1714 50.76 50.318 52.36C49.4647 53.9333 49.038 56.04 49.038 58.68C49.038 61.32 49.4647 63.44 50.318 65.04ZM85.3227 70.44C83.6161 71.8 81.5494 72.48 79.1227 72.48C76.6961 72.48 74.6161 71.8 72.8827 70.44C71.1761 69.0533 69.9494 67.3467 69.2027 65.32C68.4561 63.2933 68.0827 61.08 68.0827 58.68C68.0827 56.28 68.4561 54.0667 69.2027 52.04C69.9494 50.0133 71.1761 48.32 72.8827 46.96C74.6161 45.6 76.6961 44.92 79.1227 44.92C81.5494 44.92 83.6161 45.6 85.3227 46.96C87.0294 48.32 88.2561 50.0133 89.0027 52.04C89.7761 54.0667 90.1627 56.28 90.1627 58.68C90.1627 61.08 89.7761 63.2933 89.0027 65.32C88.2561 67.3467 87.0294 69.0533 85.3227 70.44ZM75.1227 65.04C75.9761 66.64 77.3094 67.44 79.1227 67.44C80.9361 67.44 82.2561 66.64 83.0827 65.04C83.9361 63.44 84.3627 61.32 84.3627 58.68C84.3627 56.04 83.9361 53.9333 83.0827 52.36C82.2561 50.76 80.9361 49.96 79.1227 49.96C77.3094 49.96 75.9761 50.76 75.1227 52.36C74.2694 53.9333 73.8427 56.04 73.8427 58.68C73.8427 61.32 74.2694 63.44 75.1227 65.04Z" fill="#EB3F57"/>
<path d="M30.213 95.144C29.061 95.144 28.097 94.76 27.321 93.992C26.545 93.216 26.157 92.22 26.157 91.004C26.157 89.788 26.545 88.796 27.321 88.028C28.097 87.252 29.061 86.864 30.213 86.864C31.397 86.864 32.369 87.336 33.129 88.28L32.553 88.652C32.297 88.3 31.961 88.02 31.545 87.812C31.129 87.596 30.685 87.488 30.213 87.488C29.261 87.488 28.465 87.816 27.825 88.472C27.193 89.128 26.877 89.972 26.877 91.004C26.877 92.028 27.193 92.872 27.825 93.536C28.465 94.192 29.261 94.52 30.213 94.52C30.685 94.52 31.129 94.416 31.545 94.208C31.961 93.992 32.297 93.708 32.553 93.356L33.129 93.716C32.361 94.668 31.389 95.144 30.213 95.144ZM36.9435 95.144C36.1115 95.144 35.4395 94.852 34.9275 94.268C34.4155 93.684 34.1595 92.96 34.1595 92.096C34.1595 91.232 34.4155 90.512 34.9275 89.936C35.4395 89.352 36.1115 89.06 36.9435 89.06C37.7835 89.06 38.4595 89.352 38.9715 89.936C39.4835 90.512 39.7395 91.232 39.7395 92.096C39.7395 92.96 39.4835 93.684 38.9715 94.268C38.4595 94.852 37.7835 95.144 36.9435 95.144ZM36.9435 94.58C37.5995 94.58 38.1155 94.34 38.4915 93.86C38.8755 93.372 39.0675 92.784 39.0675 92.096C39.0675 91.416 38.8755 90.836 38.4915 90.356C38.1155 89.868 37.5995 89.624 36.9435 89.624C36.2955 89.624 35.7795 89.868 35.3955 90.356C35.0195 90.836 34.8315 91.416 34.8315 92.096C34.8315 92.776 35.0195 93.36 35.3955 93.848C35.7795 94.336 36.2955 94.58 36.9435 94.58ZM44.375 95H41.351V89.204H44.327C44.807 89.204 45.187 89.34 45.467 89.612C45.755 89.876 45.899 90.236 45.899 90.692C45.899 91.02 45.807 91.304 45.623 91.544C45.447 91.776 45.231 91.932 44.975 92.012C45.263 92.092 45.507 92.268 45.707 92.54C45.907 92.812 46.007 93.108 46.007 93.428C46.007 93.916 45.859 94.3 45.563 94.58C45.275 94.86 44.879 95 44.375 95ZM44.243 94.436C44.587 94.436 44.855 94.344 45.047 94.16C45.247 93.968 45.347 93.708 45.347 93.38C45.347 93.084 45.247 92.828 45.047 92.612C44.855 92.396 44.587 92.288 44.243 92.288H41.975V94.436H44.243ZM44.219 91.736C44.547 91.736 44.799 91.644 44.975 91.46C45.159 91.276 45.251 91.04 45.251 90.752C45.251 90.448 45.159 90.208 44.975 90.032C44.799 89.848 44.547 89.756 44.219 89.756H41.975V91.736H44.219ZM50.2912 95.144C49.4592 95.144 48.7872 94.852 48.2752 94.268C47.7632 93.684 47.5072 92.96 47.5072 92.096C47.5072 91.232 47.7632 90.512 48.2752 89.936C48.7872 89.352 49.4592 89.06 50.2912 89.06C51.1312 89.06 51.8072 89.352 52.3192 89.936C52.8312 90.512 53.0872 91.232 53.0872 92.096C53.0872 92.96 52.8312 93.684 52.3192 94.268C51.8072 94.852 51.1312 95.144 50.2912 95.144ZM50.2912 94.58C50.9472 94.58 51.4632 94.34 51.8392 93.86C52.2232 93.372 52.4152 92.784 52.4152 92.096C52.4152 91.416 52.2232 90.836 51.8392 90.356C51.4632 89.868 50.9472 89.624 50.2912 89.624C49.6432 89.624 49.1272 89.868 48.7432 90.356C48.3672 90.836 48.1792 91.416 48.1792 92.096C48.1792 92.776 48.3672 93.36 48.7432 93.848C49.1272 94.336 49.6432 94.58 50.2912 94.58ZM59.5586 95H58.7186L56.4026 92.24L55.3226 93.26V95H54.6986V89.204H55.3226V92.516L58.7426 89.204H59.5706L56.8706 91.82L59.5586 95ZM60.3732 97.268L60.4812 96.692C60.6252 96.756 60.7932 96.788 60.9852 96.788C61.3772 96.788 61.6692 96.552 61.8612 96.08L62.3172 95.048L59.8692 89.204H60.5652L62.6772 94.268L64.7652 89.204H65.4732L62.4732 96.272C62.1692 96.992 61.6732 97.352 60.9852 97.352C60.7612 97.352 60.5572 97.324 60.3732 97.268ZM71.0706 95H70.4466V89.756H67.1586V95H66.5346V89.204H71.0706V95ZM73.639 95H73.015V89.204H73.639V91.724H76.927V89.204H77.551V95H76.927V92.276H73.639V95ZM79.4955 89.204H80.1195V91.568H82.3755C82.9275 91.568 83.3595 91.732 83.6715 92.06C83.9835 92.388 84.1395 92.796 84.1395 93.284C84.1395 93.772 83.9835 94.18 83.6715 94.508C83.3595 94.836 82.9275 95 82.3755 95H79.4955V89.204ZM82.3275 92.12H80.1195V94.436H82.3275C82.6955 94.436 82.9795 94.332 83.1795 94.124C83.3795 93.908 83.4795 93.628 83.4795 93.284C83.4795 92.932 83.3795 92.652 83.1795 92.444C82.9795 92.228 82.6955 92.12 82.3275 92.12ZM85.7595 95H85.1235V89.204H85.7595V95ZM88.2986 95H87.6986V89.204H88.3226V94.028L91.6226 89.204H92.2346V95H91.6106V90.104L88.2986 95ZM92.0666 87.452C91.5466 88.156 90.8466 88.508 89.9666 88.508C89.0946 88.508 88.3906 88.156 87.8546 87.452L88.2026 87.152C88.6346 87.752 89.2226 88.052 89.9666 88.052C90.7026 88.052 91.2906 87.752 91.7306 87.152L92.0666 87.452ZM99.7326 95.144C98.9006 95.144 98.2286 94.852 97.7166 94.268C97.2046 93.684 96.9486 92.96 96.9486 92.096C96.9486 91.232 97.2046 90.512 97.7166 89.936C98.2286 89.352 98.9006 89.06 99.7326 89.06C100.573 89.06 101.249 89.352 101.761 89.936C102.273 90.512 102.529 91.232 102.529 92.096C102.529 92.96 102.273 93.684 101.761 94.268C101.249 94.852 100.573 95.144 99.7326 95.144ZM99.7326 94.58C100.389 94.58 100.905 94.34 101.281 93.86C101.665 93.372 101.857 92.784 101.857 92.096C101.857 91.416 101.665 90.836 101.281 90.356C100.905 89.868 100.389 89.624 99.7326 89.624C99.0846 89.624 98.5686 89.868 98.1846 90.356C97.8086 90.836 97.6206 91.416 97.6206 92.096C97.6206 92.776 97.8086 93.36 98.1846 93.848C98.5686 94.336 99.0846 94.58 99.7326 94.58ZM108.676 95H108.052V89.756H104.764V95H104.14V89.204H108.676V95ZM110.62 89.204H111.244V91.568H113.5C114.052 91.568 114.484 91.732 114.796 92.06C115.108 92.388 115.264 92.796 115.264 93.284C115.264 93.772 115.108 94.18 114.796 94.508C114.484 94.836 114.052 95 113.5 95H110.62V89.204ZM113.452 92.12H111.244V94.436H113.452C113.82 94.436 114.104 94.332 114.304 94.124C114.504 93.908 114.604 93.628 114.604 93.284C114.604 92.932 114.504 92.652 114.304 92.444C114.104 92.228 113.82 92.12 113.452 92.12ZM116.884 95H116.248V89.204H116.884V95ZM120.504 95H119.88V89.756H118.176V89.204H122.22V89.756H120.504V95ZM55.8848 113H55.0448L52.7288 110.24L51.6488 111.26V113H51.0248V107.204H51.6488V110.516L55.0688 107.204H55.8968L53.1968 109.82L55.8848 113ZM59.5197 113.144C58.6877 113.144 58.0157 112.852 57.5037 112.268C56.9917 111.684 56.7357 110.96 56.7357 110.096C56.7357 109.232 56.9917 108.512 57.5037 107.936C58.0157 107.352 58.6877 107.06 59.5197 107.06C60.3597 107.06 61.0357 107.352 61.5477 107.936C62.0597 108.512 62.3157 109.232 62.3157 110.096C62.3157 110.96 62.0597 111.684 61.5477 112.268C61.0357 112.852 60.3597 113.144 59.5197 113.144ZM59.5197 112.58C60.1757 112.58 60.6917 112.34 61.0677 111.86C61.4517 111.372 61.6437 110.784 61.6437 110.096C61.6437 109.416 61.4517 108.836 61.0677 108.356C60.6917 107.868 60.1757 107.624 59.5197 107.624C58.8717 107.624 58.3557 107.868 57.9717 108.356C57.5957 108.836 57.4077 109.416 57.4077 110.096C57.4077 110.776 57.5957 111.36 57.9717 111.848C58.3557 112.336 58.8717 112.58 59.5197 112.58ZM69.3991 113H68.7631V108.056L66.7831 113H66.5551L64.5511 108.056V113H63.9271V107.204H64.7671L66.6631 111.908L68.5351 107.204H69.3991V113ZM75.6531 113H75.0291V112.316C74.5251 112.868 73.8691 113.144 73.0611 113.144C72.5251 113.144 72.0531 112.972 71.6451 112.628C71.2371 112.276 71.0331 111.804 71.0331 111.212C71.0331 110.612 71.2331 110.144 71.6331 109.808C72.0411 109.464 72.5171 109.292 73.0611 109.292C73.8771 109.292 74.5331 109.568 75.0291 110.12V108.944C75.0291 108.528 74.8811 108.204 74.5851 107.972C74.2891 107.732 73.9171 107.612 73.4691 107.612C72.7571 107.612 72.1531 107.896 71.6571 108.464L71.3091 108.032C71.9091 107.384 72.6531 107.06 73.5411 107.06C74.1651 107.06 74.6731 107.216 75.0651 107.528C75.4571 107.84 75.6531 108.304 75.6531 108.92V113ZM73.2771 112.652C74.0371 112.652 74.6211 112.388 75.0291 111.86V110.588C74.6131 110.052 74.0291 109.784 73.2771 109.784C72.8051 109.784 72.4211 109.92 72.1251 110.192C71.8371 110.464 71.6931 110.808 71.6931 111.224C71.6931 111.64 71.8371 111.984 72.1251 112.256C72.4211 112.52 72.8051 112.652 73.2771 112.652ZM78.2269 113H77.6029V107.204H78.2269V109.724H81.5149V107.204H82.1389V113H81.5149V110.276H78.2269V113ZM83.3274 114.476V112.484C83.6314 112.444 83.8794 112.256 84.0714 111.92C84.2634 111.584 84.4194 110.976 84.5394 110.096L84.9234 107.204H88.6194V112.436H89.3154V114.476H88.6914V113H83.9634V114.476H83.3274ZM85.4874 107.756L85.1634 110.168C84.9954 111.376 84.6954 112.132 84.2634 112.436H87.9954V107.756H85.4874ZM90.7162 107.204H91.3402V109.568H93.5962C94.1482 109.568 94.5802 109.732 94.8922 110.06C95.2042 110.388 95.3602 110.796 95.3602 111.284C95.3602 111.772 95.2042 112.18 94.8922 112.508C94.5802 112.836 94.1482 113 93.5962 113H90.7162V107.204ZM93.5482 110.12H91.3402V112.436H93.5482C93.9162 112.436 94.2002 112.332 94.4002 112.124C94.6002 111.908 94.7002 111.628 94.7002 111.284C94.7002 110.932 94.6002 110.652 94.4002 110.444C94.2002 110.228 93.9162 110.12 93.5482 110.12ZM96.9802 113H96.3442V107.204H96.9802V113Z" fill="black"/>
<path d="M98.4443 64.192V62.816C98.775 62.816 99.0363 62.6027 99.2283 62.176C99.431 61.7493 99.5963 61.0347 99.7243 60.032L100.188 56.272H106.156V64H104.476V57.744H101.676L101.404 60.224C101.255 61.6107 100.94 62.6187 100.46 63.248C99.9803 63.8773 99.3083 64.192 98.4443 64.192ZM111.906 64.192C110.733 64.192 109.762 63.8187 108.994 63.072C108.237 62.3147 107.858 61.3333 107.858 60.128C107.858 58.9973 108.226 58.0427 108.962 57.264C109.709 56.4747 110.647 56.08 111.778 56.08C112.919 56.08 113.837 56.4747 114.53 57.264C115.234 58.0533 115.586 59.0613 115.586 60.288V60.688H109.618C109.682 61.296 109.933 61.8027 110.37 62.208C110.807 62.6133 111.378 62.816 112.082 62.816C112.477 62.816 112.871 62.7413 113.266 62.592C113.671 62.4427 114.007 62.2347 114.274 61.968L115.042 63.072C114.263 63.8187 113.218 64.192 111.906 64.192ZM113.954 59.504C113.933 58.9707 113.735 58.496 113.362 58.08C112.999 57.664 112.471 57.456 111.778 57.456C111.117 57.456 110.599 57.664 110.226 58.08C109.853 58.4853 109.645 58.96 109.602 59.504H113.954ZM120.332 64H118.652V57.744H116.444V56.272H122.556V57.744H120.332V64Z" fill="black"/>
</svg>
