<svg width="28" height="28" viewBox="0 0 28 28" fill="none" xmlns="http://www.w3.org/2000/svg">
<circle cx="14.28" cy="13.72" r="13.72" fill="#444054"/>
<g clip-path="url(#clip0)">
<path d="M17.9575 14.514C17.7635 14.269 17.819 14.16 17.9575 13.941C17.96 13.9385 19.5615 11.7255 19.7265 10.975L19.7275 10.9745C19.8095 10.701 19.7275 10.5 19.331 10.5H18.019C17.685 10.5 17.531 10.6725 17.4485 10.8655C17.4485 10.8655 16.7805 12.4645 15.8355 13.501C15.5305 13.8005 15.3895 13.8965 15.223 13.8965C15.141 13.8965 15.0135 13.8005 15.0135 13.527V10.9745C15.0135 10.6465 14.92 10.5 14.6435 10.5H12.5805C12.371 10.5 12.2465 10.653 12.2465 10.7955C12.2465 11.1065 12.719 11.178 12.768 12.053V13.9515C12.768 14.3675 12.6925 14.444 12.525 14.444C12.079 14.444 10.9965 12.8385 10.355 11.001C10.2255 10.6445 10.099 10.5005 9.7625 10.5005H8.45C8.0755 10.5005 8 10.673 8 10.866C8 11.207 8.446 12.9025 10.074 15.1425C11.159 16.6715 12.687 17.5 14.077 17.5C14.9125 17.5 15.0145 17.316 15.0145 16.9995C15.0145 15.5385 14.939 15.4005 15.3575 15.4005C15.5515 15.4005 15.8855 15.4965 16.6655 16.234C17.557 17.1085 17.7035 17.5 18.2025 17.5H19.5145C19.8885 17.5 20.078 17.316 19.969 16.953C19.7195 16.1895 18.0335 14.619 17.9575 14.514Z" fill="#4B729F"/>
</g>
<defs>
<clipPath id="clip0">
<rect width="12" height="12" fill="white" transform="translate(8 8)"/>
</clipPath>
</defs>
</svg>
