<svg width="513" height="303" fill="none" xmlns="http://www.w3.org/2000/svg"><g filter="url(#filter0_d)"><rect x="100" y="90" width="313" height="103" rx="5" fill="#D4445E"/></g><path d="M178.44 158h-5.68v-5.52H160V148l10.6-16.68h7.84v16.16h3.44v5h-3.44V158zm-5.68-10.52v-11.12l-7.2 11.12h7.2zm21.827 11c-3.013 0-5.56-.64-7.64-1.92-2.053-1.28-3.08-3.107-3.08-5.48 0-1.547.534-2.92 1.6-4.12 1.067-1.227 2.44-2.133 4.12-2.72-3.52-1.227-5.28-3.32-5.28-6.28 0-2.32 1.014-4.067 3.04-5.24 2.054-1.2 4.467-1.8 7.24-1.8 1.76 0 3.387.227 4.88.68a8.425 8.425 0 013.8 2.36c1.067 1.093 1.6 2.427 1.6 4 0 2.933-1.773 5.027-5.32 6.28 1.68.587 3.054 1.493 4.12 2.72 1.094 1.2 1.64 2.573 1.64 4.12 0 2.347-1.04 4.173-3.12 5.48-2.08 1.28-4.613 1.92-7.6 1.92zm0-16.48a8.571 8.571 0 003.04-1.04c.96-.533 1.44-1.24 1.44-2.12 0-.933-.413-1.667-1.24-2.2-.826-.56-1.906-.84-3.24-.84-1.333 0-2.426.28-3.28.84-.826.533-1.24 1.267-1.24 2.2 0 .88.48 1.587 1.44 2.12.96.533 1.987.88 3.08 1.04zm0 11.6c1.387 0 2.56-.293 3.52-.88.96-.613 1.44-1.4 1.44-2.36 0-.987-.546-1.787-1.64-2.4a9.156 9.156 0 00-3.32-1.16c-1.146.16-2.266.547-3.36 1.16-1.066.613-1.6 1.413-1.6 2.4 0 .96.467 1.747 1.4 2.36.96.587 2.147.88 3.56.88zm30.338 2.84c-1.707 1.36-3.773 2.04-6.2 2.04s-4.507-.68-6.24-2.04c-1.707-1.387-2.933-3.093-3.68-5.12-.747-2.027-1.12-4.24-1.12-6.64 0-2.4.373-4.613 1.12-6.64a11.442 11.442 0 013.68-5.08c1.733-1.36 3.813-2.04 6.24-2.04s4.493.68 6.2 2.04a11.442 11.442 0 013.68 5.08c.773 2.027 1.16 4.24 1.16 6.64 0 2.4-.387 4.613-1.16 6.64-.747 2.027-1.973 3.733-3.68 5.12zm-10.2-5.4c.853 1.6 2.187 2.4 4 2.4 1.813 0 3.133-.8 3.96-2.4.853-1.6 1.28-3.72 1.28-6.36s-.427-4.747-1.28-6.32c-.827-1.6-2.147-2.4-3.96-2.4-1.813 0-3.147.8-4 2.4-.853 1.573-1.28 3.68-1.28 6.32s.427 4.76 1.28 6.36zm22.545 6.44c-.64.64-1.4.96-2.28.96-.88 0-1.64-.32-2.28-.96-.64-.64-.96-1.4-.96-2.28 0-.88.32-1.64.96-2.28.64-.64 1.4-.96 2.28-.96.88 0 1.64.32 2.28.96.64.64.96 1.4.96 2.28 0 .88-.32 1.64-.96 2.28zm20.175-1.04c-1.706 1.36-3.773 2.04-6.2 2.04-2.426 0-4.506-.68-6.24-2.04-1.706-1.387-2.933-3.093-3.68-5.12-.746-2.027-1.12-4.24-1.12-6.64 0-2.4.374-4.613 1.12-6.64.747-2.027 1.974-3.72 3.68-5.08 1.734-1.36 3.814-2.04 6.24-2.04 2.427 0 4.494.68 6.2 2.04 1.707 1.36 2.934 3.053 3.68 5.08.774 2.027 1.16 4.24 1.16 6.64 0 2.4-.386 4.613-1.16 6.64-.746 2.027-1.973 3.733-3.68 5.12zm-10.2-5.4c.854 1.6 2.187 2.4 4 2.4 1.814 0 3.134-.8 3.96-2.4.854-1.6 1.28-3.72 1.28-6.36s-.426-4.747-1.28-6.32c-.826-1.6-2.146-2.4-3.96-2.4-1.813 0-3.146.8-4 2.4-.853 1.573-1.28 3.68-1.28 6.32s.427 4.76 1.28 6.36zm34.605 5.4c-1.707 1.36-3.773 2.04-6.2 2.04s-4.507-.68-6.24-2.04c-1.707-1.387-2.933-3.093-3.68-5.12-.747-2.027-1.12-4.24-1.12-6.64 0-2.4.373-4.613 1.12-6.64a11.442 11.442 0 013.68-5.08c1.733-1.36 3.813-2.04 6.24-2.04s4.493.68 6.2 2.04a11.442 11.442 0 013.68 5.08c.773 2.027 1.16 4.24 1.16 6.64 0 2.4-.387 4.613-1.16 6.64-.747 2.027-1.973 3.733-3.68 5.12zm-10.2-5.4c.853 1.6 2.187 2.4 4 2.4 1.813 0 3.133-.8 3.96-2.4.853-1.6 1.28-3.72 1.28-6.36s-.427-4.747-1.28-6.32c-.827-1.6-2.147-2.4-3.96-2.4-1.813 0-3.147.8-4 2.4-.853 1.573-1.28 3.68-1.28 6.32s.427 4.76 1.28 6.36zm34.605 5.4c-1.707 1.36-3.774 2.04-6.2 2.04-2.427 0-4.507-.68-6.24-2.04-1.707-1.387-2.934-3.093-3.68-5.12-.747-2.027-1.12-4.24-1.12-6.64 0-2.4.373-4.613 1.12-6.64.746-2.027 1.973-3.72 3.68-5.08 1.733-1.36 3.813-2.04 6.24-2.04 2.426 0 4.493.68 6.2 2.04 1.706 1.36 2.933 3.053 3.68 5.08.773 2.027 1.16 4.24 1.16 6.64 0 2.4-.387 4.613-1.16 6.64-.747 2.027-1.974 3.733-3.68 5.12zm-10.2-5.4c.853 1.6 2.186 2.4 4 2.4 1.813 0 3.133-.8 3.96-2.4.853-1.6 1.28-3.72 1.28-6.36s-.427-4.747-1.28-6.32c-.827-1.6-2.147-2.4-3.96-2.4-1.814 0-3.147.8-4 2.4-.854 1.573-1.28 3.68-1.28 6.32s.426 4.76 1.28 6.36zm42.637 7.44c-3.173 0-5.96-.947-8.36-2.84-2.373-1.893-3.907-4.4-4.6-7.52h-2.2v-1.2h2c-.107-.64-.16-1.387-.16-2.24 0-.533.053-1.307.16-2.32h-2v-1.2h2.2c.72-3.093 2.267-5.573 4.64-7.44 2.4-1.893 5.173-2.84 8.32-2.84 3.76 0 6.853 1.4 9.28 4.2l-1 .88c-.96-1.2-2.173-2.147-3.64-2.84a10.562 10.562 0 00-4.64-1.04c-2.8 0-5.253.827-7.36 2.48s-3.493 3.853-4.16 6.6h13.92v1.2h-14.16c-.107.667-.16 1.44-.16 2.32 0 .533.053 1.28.16 2.24h14.16v1.2h-13.92c.667 2.773 2.053 5 4.16 6.68 2.107 1.653 4.56 2.48 7.36 2.48 1.653 0 3.2-.347 4.64-1.04 1.467-.693 2.68-1.64 3.64-2.84l1.04.84c-2.507 2.827-5.613 4.24-9.32 4.24z" fill="#fff"/><mask id="a" maskUnits="userSpaceOnUse" x="100" y="90" width="313" height="103"><rect x="100" y="90" width="313" height="103" rx="5" fill="#D4445E"/></mask><g mask="url(#a)"><path d="M367 208.333c-16.7 0-31.2-9.466-38.433-23.333H367v-13.333h-42.767c-.333-2.167-.566-4.4-.566-6.667 0-2.267.233-4.5.566-6.667H367V145h-38.433c7.233-13.867 21.7-23.333 38.433-23.333 10.767 0 20.6 3.933 28.167 10.433L407 120.333c-10.6-9.5-24.633-15.333-40-15.333-26.1 0-48.267 16.7-56.5 40H287v13.333h20.4c-.267 2.2-.4 4.4-.4 6.667 0 2.267.133 4.467.4 6.667H287V185h23.5c8.233 23.3 30.4 40 56.5 40 15.367 0 29.4-5.833 40-15.333l-11.833-11.8c-7.567 6.5-17.4 10.466-28.167 10.466z" fill="#fff" fill-opacity=".1"/></g><defs><filter id="filter0_d" x="0" y="0" width="513" height="303" filterUnits="userSpaceOnUse" color-interpolation-filters="sRGB"><feFlood flood-opacity="0" result="BackgroundImageFix"/><feColorMatrix in="SourceAlpha" values="0 0 0 0 0 0 0 0 0 0 0 0 0 0 0 0 0 0 127 0"/><feOffset dy="10"/><feGaussianBlur stdDeviation="50"/><feColorMatrix values="0 0 0 0 0.831373 0 0 0 0 0.266667 0 0 0 0 0.368627 0 0 0 0.5 0"/><feBlend in2="BackgroundImageFix" result="effect1_dropShadow"/><feBlend in="SourceGraphic" in2="effect1_dropShadow" result="shape"/></filter></defs></svg>