<svg width="41" height="44" fill="none" xmlns="http://www.w3.org/2000/svg"><g clip-path="url(#clip0)" fill="#FFC582"><path d="M4.771 5.057v37.556c0 .4.306.723.684.723h25.953c.377 0 .683-.324.683-.723V12.28c0-.016-.007-.03-.009-.045a.716.716 0 00-.035-.186c-.007-.023-.013-.046-.022-.068a.72.72 0 00-.137-.212l-6.83-7.222a.662.662 0 00-.44-.206c-.012.002-.025-.005-.04-.005H5.455c-.378 0-.684.323-.684.722zm24.988 6.5h-4.498V6.8l4.498 4.757zM6.137 5.779h17.758v6.5c0 .399.306.722.683.722h6.147v28.89H6.137V5.78z"/><path d="M33.457 37.557V39h2.049c.377 0 .683-.323.683-.722V.722c0-.399-.306-.722-.683-.722H9.552c-.377 0-.683.323-.683.722V2.89h1.367V1.444h24.587v36.113h-1.366z"/><path d="M10.236 14.445h16.391v1.445H10.236v-1.445zM10.236 10.111h5.463v1.445h-5.463v-1.445zM10.236 18.778h10.927v1.445H10.235v-1.445zM22.53 18.778h4.097v1.445H22.53v-1.445zM10.236 23.112h16.391v1.445H10.236v-1.445zM10.236 31.779h16.391v1.445H10.236v-1.445zM16.382 27.445h10.245v1.445H16.382v-1.445zM10.236 27.445h4.78v1.445h-4.78v-1.445zM10.236 36.112h2.731v1.445h-2.732v-1.445zM14.333 36.112h12.294v1.445H14.333v-1.445z"/></g><defs><clipPath id="clip0"><path fill="#fff" d="M0 0h41v43.356H0z"/></clipPath></defs></svg>